<?xml version="1.0" encoding="UTF-8" standalone="no"?>
<svg width="352px" height="190px" viewBox="0 0 352 190" version="1.1" xmlns="http://www.w3.org/2000/svg" xmlns:xlink="http://www.w3.org/1999/xlink" xmlns:sketch="http://www.bohemiancoding.com/sketch/ns">
    <!-- Generator: Sketch 3.5.1 (25234) - http://www.bohemiancoding.com/sketch -->
    <title>card</title>
    <desc>Created with Sketch.</desc>
    <defs>
        <rect id="path-1" x="0" y="0" width="360" height="190"></rect>
        <path id="path-3" d="M73.7461945,62.8986426 L37.5080432,84.4917186 L0.692588529,63.8995143 L0.114407315,21.7148194 L36.3525586,0.122036115 L73.1683059,20.7139477 L73.7461945,62.8986426 L73.7461945,62.8986426 Z"></path>
        <path id="path-5" d="M0.23203325,234.745978 L351.806883,234.745978 L351.806883,0.23382939 L0.23203325,0.23382939 L0.23203325,234.745978 Z"></path>
        <path id="path-7" d="M0.23203325,234.745978 L351.806883,234.745978 L351.806883,0.23382939 L0.23203325,0.23382939 L0.23203325,234.745978 Z"></path>
        <path id="path-9" d="M0.23203325,234.745978 L351.806883,234.745978 L351.806883,0.23382939 L0.23203325,0.23382939 L0.23203325,234.745978 Z"></path>
        <path id="path-11" d="M36.9125985,31.4566376 L18.8403392,42.2250809 L0.480452203,31.9556102 L0.192532003,10.9179888 L18.2642062,0.149838107 L36.6246783,10.4190162 L36.9125985,31.4566376 L36.9125985,31.4566376 Z"></path>
        <path id="path-13" d="M36.8412037,31.5988667 L18.7692369,42.3670174 L0.409057357,32.0978394 L0.121137157,11.0599253 L18.1931039,0.291774595 L36.5535761,10.5609527 L36.8412037,31.5988667 L36.8412037,31.5988667 Z"></path>
        <path id="path-15" d="M22.5607714,19.1936177 L11.5530906,25.7528394 L0.369263508,19.4976837 L0.194287614,6.6830137 L11.202261,0.12379203 L22.3855029,6.37924035 L22.5607714,19.1936177 L22.5607714,19.1936177 Z"></path>
        <path id="path-17" d="M0.23203325,234.745978 L351.806883,234.745978 L351.806883,0.23382939 L0.23203325,0.23382939 L0.23203325,234.745978 Z"></path>
        <path id="path-19" d="M0.23203325,234.745978 L351.806883,234.745978 L351.806883,0.23382939 L0.23203325,0.23382939 L0.23203325,234.745978 Z"></path>
        <path id="path-21" d="M0.23203325,234.745978 L351.806883,234.745978 L351.806883,0.23382939 L0.23203325,0.23382939 L0.23203325,234.745978 Z"></path>
        <path id="path-23" d="M0.23203325,234.745978 L351.806883,234.745978 L351.806883,0.23382939 L0.23203325,0.23382939 L0.23203325,234.745978 L0.23203325,234.745978 Z"></path>
        <path id="path-25" d="M2.3367182,0.449806974 C0.544239401,1.28386675 -0.219743973,3.91130137 0.629971737,6.31749066 C1.47998005,8.72455791 3.62182544,9.99935243 5.41459684,9.165 C7.20707564,8.33064757 7.97076642,5.70321295 7.12105071,3.29673101 C6.27104239,0.890541719 4.12919701,-0.384545455 2.3367182,0.449806974"></path>
        <path id="path-27" d="M0.561795511,0.276849315 C0.329469659,0.266313823 0.112944306,1.08691158 0.0778320865,2.1094396 C0.0418420615,3.13255293 0.201895262,3.96983188 0.434513716,3.98036737 C0.666254364,3.99061021 0.883364921,3.17089041 0.918184539,2.14748443 C0.953881962,1.12495641 0.794413965,0.287384807 0.561795511,0.276849315"></path>
        <path id="path-29" d="M0.775394846,0.141643836 C0.691418121,0.1375467 0.510590191,3.39594022 0.372189526,7.41932752 C0.233496259,11.4433001 0.189020781,14.7078394 0.272704904,14.7116438 C0.356681629,14.714863 0.536631754,11.4567621 0.675032419,7.43337484 C0.814018288,3.40998755 0.859371571,0.145740971 0.775394846,0.141643836"></path>
        <path id="path-31" d="M0.0728578554,1.1343213 C0.087195345,1.54959527 1.00479468,1.84663761 2.12311887,1.79659402 C3.24027265,1.74684309 4.13534165,1.3699066 4.12158936,0.954339975 C4.10754447,0.538188045 3.18965254,0.241731009 2.07220615,0.291774595 C0.953881962,0.341232877 0.0591055694,0.718169365 0.0728578554,1.1343213"></path>
        <path id="path-33" d="M0.0160931006,0.763823163 C0.0210673317,0.913075965 3.59022444,0.876494396 7.98861513,0.680417186 C12.3867132,0.485217933 12.0045752,0.301724782 13.9743707,0.243194271 C16.1759069,0.1776401 12.3682793,-0.0579452055 7.97047382,0.137839352 C3.57237573,0.334209215 0.0108262677,0.614570361 0.0160931006,0.763823163"></path>
        <path id="path-35" d="M0.304598504,0.980386052 C-0.064957606,1.87648817 0.375115544,3.00554172 1.28774065,3.50188045 C2.20095096,3.99821918 3.24027265,3.67454545 3.61041397,2.77844334 C3.97997007,1.88204857 3.53960432,0.753580324 2.62727182,0.256656289 C1.71376891,-0.239389788 0.674447215,0.0842839352 0.304598504,0.980386052"></path>
        <path id="path-37" d="M0.136937656,0.112963885 C0.0579351621,0.189638854 0.202480466,0.535261519 0.460555278,0.883225405 C0.717752286,1.23206725 0.990749792,1.45243462 1.06975229,1.37488169 C1.14846218,1.29791407 1.00450208,0.95258406 0.746427265,0.604327522 C0.489230258,0.255778331 0.216232751,0.035996264 0.136937656,0.112963885"></path>
        <path id="path-39" d="M0.248126351,0.0184371108 C0.21915877,0.0459464508 1.01796176,1.17997509 2.0315345,2.5510523 C3.04510723,3.92212951 3.88984871,5.01050436 3.91823109,4.98328767 C3.94632086,4.95548568 3.14810308,3.82145704 2.13453034,2.45096513 C1.120665,1.07900996 0.27680133,-0.00965753425 0.248126351,0.0184371108"></path>
        <path id="path-41" d="M0.321862012,1.74976961 C0.436269327,1.88117061 0.815773899,1.66051059 1.17011471,1.25606476 C1.52474813,0.851911582 1.71962095,0.417615193 1.60550623,0.285921544 C1.49197672,0.153935243 1.11159435,0.37488792 0.757253533,0.779333748 C0.402620116,1.18348692 0.207454697,1.61778331 0.321862012,1.74976961"></path>
        <path id="path-43" d="M0.191361596,5.91831258 C0.232325852,5.96601494 1.39629593,4.71492528 2.79025104,3.12582192 C4.18508396,1.53554795 5.28234081,0.207783313 5.24079135,0.160666252 C5.2001197,0.112671233 4.03585702,1.36317559 2.64190191,2.95344956 C1.24706899,4.54313823 0.149812136,5.87119552 0.191361596,5.91831258"></path>
        <path id="path-45" d="M0.413738986,0.0573599004 C0.352,0.0547260274 0.219743973,2.43603985 0.119088944,5.3766127 C0.0172635079,8.31777086 -0.0146300914,10.7040598 0.0462310889,10.7066936 C0.107384871,10.7090349 0.239348296,8.32772105 0.340003325,5.38685554 C0.441828761,2.44628269 0.474892768,0.0602864259 0.413738986,0.0573599004"></path>
        <path id="path-47" d="M3.92847215,0.568038605 C0.592226101,2.1205604 -0.829818786,7.01078456 0.751694098,11.4898319 C2.33408479,15.9697572 6.3207847,18.3428767 9.65703076,16.7897696 C12.9935694,15.2363699 14.4147365,10.3464384 12.8338088,5.86709838 C11.2514181,1.38834371 7.2644256,-0.984775841 3.92847215,0.568038605"></path>
        <path id="path-49" d="M1.01591355,0.132864259 C0.583740648,0.112963885 0.180242727,1.64031756 0.114699917,3.54314446 C0.0479866999,5.44801993 0.345855362,7.00668742 0.778320865,7.02570984 C1.20990856,7.04531756 1.61428429,5.51942715 1.6792419,3.61484433 C1.74507731,1.71113948 1.44867165,0.15247198 1.01591355,0.132864259"></path>
        <path id="path-51" d="M1.1200798,0.0266313823 C0.964123026,0.0190224159 0.627923525,6.08366127 0.370433915,13.5723474 C0.1120665,21.0616189 0.0292601829,27.1385492 0.185216958,27.1455729 C0.340881131,27.1514259 0.676495428,21.0873724 0.933985037,13.5983935 C1.19293766,6.10970735 1.27691438,0.0339476961 1.1200798,0.0266313823"></path>
        <path id="path-53" d="M0.0158004988,1.85892902 C0.042719867,2.63211706 1.75063674,3.18493773 3.83191355,3.09158157 C5.91143475,2.99910336 7.57750956,2.29761519 7.5523458,1.52384184 C7.52601164,0.749483188 5.81663175,0.197540473 3.73681796,0.29118929 C1.65612635,0.383082192 -0.010241064,1.08457036 0.0158004988,1.85892902"></path>
        <path id="path-55" d="M0.136352452,1.3810274 C0.145715711,1.65875467 6.78924023,1.59056663 14.9756542,1.22562889 C23.1623608,0.862154421 22.4510457,0.520921544 26.1176392,0.412054795 C30.21465,0.29001868 23.1281264,-0.148960149 14.9422976,0.215684932 C6.75588362,0.581500623 0.126989194,1.10271482 0.136352452,1.3810274"></path>
        <path id="path-57" d="M0.447095594,1.98681818 C-0.240811305,3.65464508 0.577888612,5.75647572 2.27732003,6.68008717 C3.97704406,7.60399128 5.91143475,7.00171233 6.60080466,5.33359278 C7.28871155,3.66518057 6.46854863,1.5648132 4.76999501,0.639738481 C3.07027099,-0.283872976 1.1355877,0.318991283 0.447095594,1.98681818"></path>
        <path id="path-59" d="M0.225303408,0.20983188 C0.0778320865,0.352938979 0.346733167,0.995896638 0.827477972,1.64353674 C1.30617456,2.29293275 1.81413134,2.70293898 1.96101746,2.55866127 C2.10848878,2.41584682 1.8401729,1.77318182 1.3597207,1.12466376 C0.880146301,0.475853051 0.372482128,0.0670174346 0.225303408,0.20983188"></path>
        <path id="path-61" d="M0.0497423109,0.278019925 C-0.0040964256,0.328941469 1.48202826,2.43984433 3.36872485,4.9917746 C5.25542145,7.54370486 6.82757107,9.56944583 6.880532,9.51910959 C6.93320033,9.46731009 5.44736825,7.35611457 3.56067165,4.80476961 C1.67368246,2.25196139 0.102995844,0.225635118 0.0497423109,0.278019925"></path>
        <path id="path-63" d="M0.316887781,3.00437111 C0.52960931,3.24902864 1.23653533,2.83843711 1.89605985,2.08573474 C2.55616958,1.33361768 2.91870324,0.524726027 2.70598171,0.279775841 C2.4953084,0.0342403487 1.78721197,0.445124533 1.12739485,1.19811955 C0.467577722,1.95082192 0.104166251,2.75912827 0.316887781,3.00437111"></path>
        <path id="path-65" d="M0.0245785536,10.7546887 C0.101532835,10.843655 2.26737157,8.51560399 4.86304239,5.55717933 C7.45871322,2.59699875 9.50107398,0.12613325 9.4235345,0.0383374844 C9.34804323,-0.0512141968 7.18103408,2.27625156 4.58624106,5.23643213 C1.99027764,8.19514944 -0.0520831255,10.6671856 0.0245785536,10.7546887"></path>
        <path id="path-67" d="M4.05487614,0.70265878 C0.71833749,2.25518057 -0.703122195,7.14569738 0.877805486,11.6244521 C2.46078138,16.1043773 6.44718869,18.4774969 9.78372735,16.9243898 C13.1199734,15.37099 14.5414331,10.4810585 12.9599202,6.00171856 C11.3778221,1.52296389 7.39082959,-0.850155666 4.05487614,0.70265878"></path>
        <path id="path-69" d="M1.14261014,0.267484433 C0.710144638,0.24758406 0.306646717,1.77493773 0.241396509,3.67805729 C0.17439069,5.5826401 0.472551953,7.14160025 0.904724855,7.16033001 C1.33631255,7.17993773 1.74098088,5.65404732 1.80535328,3.74946451 C1.8717739,1.8460523 1.57478304,0.287092154 1.14261014,0.267484433"></path>
        <path id="path-71" d="M1.24677639,0.161251557 C1.09081962,0.15364259 0.754327515,6.21828144 0.496837905,13.7069676 C0.23847049,21.1965318 0.155956775,27.2731694 0.311620948,27.2799004 C0.467285121,27.2860461 0.802899418,21.2219925 1.06038903,13.7330137 C1.31934165,6.24432752 1.40302577,0.16856787 1.24677639,0.161251557"></path>
        <path id="path-73" d="M0.142204489,1.70118929 C0.169123857,2.47408468 1.87704073,3.02719801 3.95831754,2.93354919 C6.03783874,2.84107098 7.70391355,2.13929016 7.67874979,1.36580946 C7.65241563,0.591450809 5.94332835,0.0395080946 3.86322195,0.133156912 C1.78223774,0.224757161 0.116455528,0.926830635 0.142204489,1.70118929"></path>
        <path id="path-75" d="M0.263049044,1.51564757 C0.272412303,1.79337484 6.91593682,1.72547945 15.1023508,1.36024907 C23.2887648,0.996774595 22.5774497,0.655541719 26.2440432,0.546674969 C30.341054,0.424931507 23.2545303,-0.0140473225 15.068409,0.350305106 C6.88258022,0.716120797 0.253685786,1.23762765 0.263049044,1.51564757"></path>
        <path id="path-77" d="M0.280897756,1.82907846 C-0.406716542,3.4966127 0.411983375,5.59873599 2.11082959,6.52234745 C3.81113882,7.44625156 5.74523691,6.8439726 6.43489942,5.1755604 C7.12222111,3.50714819 6.30235079,1.40707347 4.60408978,0.481706102 C2.90378055,-0.441612702 0.969389859,0.161251557 0.280897756,1.82907846"></path>
        <path id="path-79" d="M0.0593981712,0.0517995019 C-0.0883657523,0.195199253 0.18082793,0.837864259 0.660987531,1.48579701 C1.13997672,2.13490037 1.6479335,2.54519925 1.79452702,2.40062889 C1.94199834,2.25781445 1.67368246,1.61514944 1.19323026,0.966631382 C0.714241064,0.317820672 0.205991687,-0.0913075965 0.0593981712,0.0517995019"></path>
        <path id="path-81" d="M0.176146301,0.119987547 C0.122014963,0.170909091 1.60843225,2.28181196 3.49542145,4.83374222 C5.38182544,7.38567248 6.95426766,9.41141345 7.0072286,9.36107721 C7.05931172,9.30927771 5.57377224,7.19837484 3.68707564,4.64673724 C1.80037905,2.09392902 0.229399834,0.0676027397 0.176146301,0.119987547"></path>
        <path id="path-83" d="M0.150689942,2.84633873 C0.363704073,3.09099626 1.07063009,2.68040473 1.72986201,1.92770237 C2.38967914,1.17558531 2.752798,0.366693649 2.53978387,0.121743462 C2.32911056,-0.12379203 1.62072153,0.287384807 0.961489609,1.04008717 C0.301379884,1.79278954 -0.0617389859,2.60109589 0.150689942,2.84633873"></path>
        <path id="path-85" d="M0.150982544,10.8893088 C0.227936825,10.9782752 2.39406816,8.65022416 4.98915378,5.6917995 C7.58511721,2.73161893 9.62777057,0.260753425 9.55023109,0.172957659 C9.47444722,0.0834059776 7.30773067,2.41116438 4.71264505,5.3710523 C2.11668163,8.32976961 0.0740282627,10.8018057 0.150982544,10.8893088"></path>
        <path id="path-87" d="M3.94105403,0.688026152 C0.60480798,2.24025529 -0.816944306,7.13047945 0.764275977,11.6095268 C2.34695927,16.0894521 6.33336658,18.4625716 9.66990524,16.9094645 C13.0064439,15.3563574 14.427611,10.4664259 12.8466833,5.98679328 C11.264,1.50774595 7.27700748,-0.865080946 3.94105403,0.688026152"></path>
        <path id="path-89" d="M1.02878803,0.252559153 C0.596322527,0.23265878 0.193117207,1.76030511 0.127574397,3.663132 C0.0608611804,5.56742217 0.358729842,7.12667497 0.790902743,7.14540473 C1.22249044,7.16501245 1.62715877,5.63941469 1.69211638,3.73453923 C1.75795179,1.83112702 1.46154613,0.272166874 1.02878803,0.252559153"></path>
        <path id="path-91" d="M1.13295428,0.146033624 C0.976997506,0.139009963 0.640798005,6.20335616 0.383015794,13.6920423 C0.124648379,21.1816065 0.0421346633,27.2582441 0.197798836,27.2649751 C0.353755611,27.2711208 0.689077307,21.2070672 0.946859518,13.7183811 C1.20551953,6.22940224 1.28949626,0.15364259 1.13295428,0.146033624"></path>
        <path id="path-93" d="M0.0286749792,1.68597136 C0.0555943475,2.45886675 1.76351122,3.01198007 3.84449543,2.91891656 C5.92430923,2.82643836 7.59038404,2.12465753 7.56522028,1.35088418 C7.53859352,0.576525529 5.82950623,0.024875467 3.74969244,0.117938979 C1.66870823,0.210417186 0.00263341646,0.911612702 0.0286749792,1.68597136"></path>
        <path id="path-95" d="M0.149226933,1.50101494 C0.158590191,1.77874222 6.80211471,1.71055417 14.9885287,1.34561644 C23.1749426,0.981849315 22.4636276,0.640616438 26.1302211,0.531749689 C30.2272319,0.409713574 23.1407082,-0.0292652553 14.9551721,0.335379826 C6.7687581,0.701195517 0.139863674,1.22299502 0.149226933,1.50101494"></path>
        <path id="path-97" d="M0.459970075,1.81415318 C-0.227936825,3.48168742 0.590763092,5.58351806 2.29019451,6.50712951 C3.98991854,7.43103362 5.92430923,6.82904732 6.61367914,5.16063512 C7.30129343,3.49251557 6.48142311,1.39214819 4.78286949,0.467073474 C3.08285287,-0.456830635 1.14816958,0.146033624 0.459970075,1.81415318"></path>
        <path id="path-99" d="M0.238177889,0.0368742217 C0.0904139651,0.17998132 0.359607648,0.823231631 0.839767249,1.47057908 C1.31875644,2.11997509 1.82700582,2.53027397 1.97359933,2.38599626 C2.12107066,2.24288917 1.85275478,1.60022416 1.37230258,0.951998755 C0.893020781,0.303188045 0.385356608,-0.105940224 0.238177889,0.0368742217"></path>
        <path id="path-101" d="M0.0623241895,0.105062267 C0.00877805486,0.156276463 1.49490274,2.26717933 3.38159933,4.81881694 C5.26800333,7.37045455 6.84044555,9.39619552 6.89340648,9.34615193 C6.94607481,9.29435243 5.46024273,7.18344956 3.57354613,4.63210461 C1.68655694,2.07900374 0.115577722,0.0529701121 0.0623241895,0.105062267"></path>
        <path id="path-103" d="M0.329762261,2.83141345 C0.542483791,3.07607098 1.24940981,2.66547945 1.90893433,1.91277709 C2.56904406,1.16066002 2.93157772,0.352061021 2.71856359,0.106818182 C2.50818288,-0.138424658 1.80008645,0.272459527 1.14026933,1.02545455 C0.480159601,1.77815691 0.117040732,2.58617061 0.329762261,2.83141345"></path>
        <path id="path-105" d="M0.0371604323,10.8740909 C0.114407315,10.9636426 2.28024605,8.63559153 4.87533167,5.67687422 C7.4715877,2.71669365 9.51394846,0.245828144 9.43640898,0.158032379 C9.36091771,0.0684806974 7.19390856,2.3962391 4.59882294,5.35641968 C2.00285952,8.31484433 -0.0392086451,10.7865878 0.0371604323,10.8740909"></path>
        <path id="path-107" d="M2.33232918,0.387179328 C0.46552951,1.25547945 -0.330054863,3.99178082 0.554773067,6.49776463 C1.4401862,9.0040411 3.67068994,10.3320984 5.53778221,9.4629203 C7.40428928,8.59403487 8.19958105,5.85802615 7.31475312,3.35174969 C6.42933998,0.845765878 4.19883624,-0.481706102 2.33232918,0.387179328"></path>
        <path id="path-109" d="M0.629679135,0.0354109589 C0.387697423,0.0242901619 0.161808811,0.878835616 0.125233583,1.94379826 C0.0877805486,3.00905355 0.254563591,3.88145081 0.496837905,3.89169365 C0.737941812,3.90281445 0.964415628,3.04914695 1.00040565,1.983599 C1.03727348,0.918636364 0.871368246,0.0462391034 0.629679135,0.0354109589"></path>
        <path id="path-111" d="M0.851763924,0.261631382 C0.764275977,0.257534247 0.576133001,3.6508406 0.432172901,7.8407472 C0.287627598,12.0309465 0.241396509,15.4309838 0.328299252,15.4347883 C0.415494597,15.4380075 0.603052369,12.0452864 0.747305071,7.85537983 C0.892142976,3.66518057 0.938959268,0.266021171 0.851763924,0.261631382"></path>
        <path id="path-113" d="M0.0593981712,0.976581569 C0.0743208645,1.40912204 1.03025104,1.71845579 2.19451372,1.66636364 C3.35819119,1.61485679 4.29012801,1.22182441 4.27637573,0.788991283 C4.26174564,0.355865504 3.30493766,0.047117061 2.14155278,0.0992092154 C0.976997506,0.151008717 0.0453532835,0.543455791 0.0593981712,0.976581569"></path>
        <path id="path-115" d="M0.0506201164,0.907808219 C0.0561795511,1.06320672 3.77280798,1.02516189 8.35290441,0.820890411 C12.9338786,0.617496887 12.5353549,0.426687422 14.5873716,0.365815691 C16.8796143,0.297334994 12.9145669,0.0517995019 8.33447049,0.256070984 C3.75408146,0.460342466 0.0453532835,0.752409714 0.0506201164,0.907808219"></path>
        <path id="path-117" d="M0.30079468,1.07286426 C-0.0839767249,2.0058406 0.374237739,3.18171856 1.32460848,3.69854296 C2.27614963,4.21566002 3.35819119,3.87852428 3.7438404,2.94496264 C4.1286118,2.01169365 3.66981214,0.836400996 2.71914879,0.318991283 C1.76819285,-0.197833126 0.685858687,0.139595268 0.30079468,1.07286426"></path>
        <path id="path-119" d="M0.186972569,0.217733499 C0.104751455,0.297627646 0.254856193,0.657590286 0.524049875,1.01989415 C0.79207315,1.38336862 1.07589692,1.61280822 1.15782544,1.53203611 C1.24063175,1.45214197 1.09052702,1.09247198 0.821918537,0.729582814 C0.55360266,0.366693649 0.269486284,0.137839352 0.186972569,0.217733499"></path>
        <path id="path-121" d="M0.242274314,0.0468244085 C0.212136326,0.0755043587 1.04371072,1.25665006 2.09912552,2.68420922 C3.15512552,4.11206102 4.03410141,5.24521171 4.0639468,5.21740971 C4.09349958,5.18843711 3.26221779,4.00729141 2.20651039,2.57973225 C1.15080299,1.1515878 0.272119701,0.0175591532 0.242274314,0.0468244085"></path>
        <path id="path-123" d="M0.0746134663,1.61749066 C0.193702411,1.75445205 0.589300083,1.5247198 0.958270989,1.10359278 C1.3272419,0.682758406 1.53060017,0.230317559 1.41151122,0.0930635118 C1.29330008,-0.0441905355 0.897409809,0.185834371 0.528146301,0.606961395 C0.158882793,1.02838107 -0.044475478,1.48023661 0.0746134663,1.61749066"></path>
        <path id="path-125" d="M0.158297589,6.16618929 C0.20160266,6.21623288 1.41326683,4.91392902 2.86544971,3.25839352 C4.31792519,1.60227273 5.46053533,0.219782067 5.41752286,0.170616438 C5.37509559,0.120572852 4.16284622,1.42287671 2.71066334,3.07899751 C1.25818786,4.734533 0.115577722,6.11731631 0.158297589,6.16618929"></path>
        <path id="path-127" d="M3.9196941,0.632422167 C0.583448047,2.18465131 -0.838304239,7.07516812 0.742916043,11.5539228 C2.32559933,16.0338481 6.31200665,18.4072603 9.6485453,16.8538605 C12.9847914,15.3007534 14.406251,10.4108219 12.8250308,5.93148194 C11.2426401,1.45243462 7.25564755,-0.920684932 3.9196941,0.632422167"></path>
        <path id="path-129" d="M1.00713549,0.197247821 C0.574962594,0.177054795 0.171464672,1.70470112 0.105921862,3.60782067 C0.0395012469,5.51211083 0.337369909,7.07107098 0.769250208,7.0900934 C1.20113051,7.10940847 1.60550623,5.58381071 1.67046384,3.6792279 C1.73629925,1.77552304 1.439601,0.216562889 1.00713549,0.197247821"></path>
        <path id="path-131" d="M1.11159435,0.0907222914 C0.955637573,0.0834059776 0.619438071,6.14804483 0.36165586,13.636731 C0.103288446,21.1260025 0.0207747298,27.2029328 0.176438903,27.2096638 C0.332103076,27.2158095 0.667717373,21.1514633 0.925206983,13.6627771 C1.1841596,6.17379826 1.26784372,0.0983312578 1.11159435,0.0907222914"></path>
        <path id="path-133" d="M0.00702244389,1.63036737 C0.034234414,2.40355542 1.74185869,2.95637609 3.82313549,2.86331258 C5.90294929,2.77112702 7.56902411,2.06905355 7.54356775,1.2952802 C7.51723358,0.520921544 5.8081463,-0.0307285181 3.7280399,0.0626276463 C1.64705569,0.1548132 -0.018726517,0.85630137 0.00702244389,1.63036737"></path>
        <path id="path-135" d="M0.127866999,1.44541096 C0.137230258,1.72313823 6.78075478,1.65524284 14.9668761,1.29001245 C23.1532901,0.926830635 22.4422677,0.585305106 26.1088612,0.476438356 C30.205872,0.354109589 23.1193483,-0.0845765878 14.9335195,0.280068493 C6.74710557,0.645591532 0.118503741,1.16739103 0.127866999,1.44541096"></path>
        <path id="path-137" d="M0.438317539,2.05120174 C-0.24958936,3.71902864 0.569403159,5.82085928 2.26824938,6.74447073 C3.9685586,7.66837484 5.90294929,7.06609589 6.5923192,5.39797634 C7.2796409,3.72956413 6.46006318,1.62919676 4.76121696,0.704122042 C3.06120033,-0.219489415 1.12680964,0.383374844 0.438317539,2.05120174"></path>
        <path id="path-139" d="M0.216817955,0.27392279 C0.0690540316,0.417029888 0.338247714,1.05998755 0.818407315,1.7079203 C1.29739651,2.35731631 1.80535328,2.76732254 1.9519468,2.62304483 C2.09941812,2.48023039 1.83110224,1.83727273 1.35094264,1.18904732 C0.871660848,0.540529265 0.363704073,0.131400996 0.216817955,0.27392279"></path>
        <path id="path-141" d="M0.040964256,0.049750934 C-0.0128744805,0.100672478 1.47354281,2.21157534 3.3599468,4.76321295 C5.24664339,7.31514321 6.81908562,9.34088418 6.87175395,9.2908406 C6.92412968,9.23874844 5.43859019,7.12784558 3.5518936,4.57679328 C1.66490441,2.02398506 0.0942177889,-0.00263387298 0.040964256,0.049750934"></path>
        <path id="path-143" d="M0.308109726,3.06846202 C0.521123857,3.31311955 1.22804988,2.90282067 1.8872818,2.15011831 C2.54739152,1.39770859 2.91021779,0.589109589 2.69720366,0.344159402 C2.48653034,0.0986239103 1.77843392,0.509508095 1.11890939,1.26250311 C0.458799667,2.01520548 0.095680798,2.82321918 0.308109726,3.06846202"></path>
        <path id="path-145" d="M0.0158004988,10.8187796 C0.0927547797,10.9080386 2.25859352,8.57998755 4.85397174,5.62127024 C7.44993516,2.66138232 9.49258853,0.190224159 9.41504904,0.102721046 C9.33926517,0.0128767123 7.17225603,2.34034247 4.57746301,5.30081569 C1.98149958,8.259533 -0.0611537822,10.7312765 0.0158004988,10.8187796"></path>
        <path id="path-147" d="M3.77339318,0.540821918 C0.524635079,2.0520797 -0.859664173,6.81382939 0.68000665,11.1749377 C2.22084788,15.5375093 6.10279634,17.8480012 9.35155445,16.3358655 C12.6003126,14.8234371 13.9840266,10.0619801 12.4446484,5.70028643 C10.9038071,1.33917808 7.02156608,-0.971606476 3.77339318,0.540821918"></path>
        <path id="path-149" d="M1.06858188,0.263387298 C0.647527847,0.244072229 0.254563591,1.7313325 0.191068994,3.58411582 C0.126111388,5.43865504 0.4160798,6.95664384 0.837133832,6.97508095 C1.25731006,6.99381071 1.65115212,5.50830635 1.71435411,3.65347447 C1.77843392,1.80010585 1.48963591,0.282409714 1.06858188,0.263387298"></path>
        <path id="path-151" d="M1.16250707,0.128474471 C1.01035411,0.121158157 0.682932668,6.02688667 0.432172901,13.3186177 C0.18082793,20.610934 0.100069825,26.5277833 0.251930175,26.534807 C0.403497922,26.5403674 0.730041563,20.6361021 0.981093932,13.3437858 C1.23302411,6.05205479 1.31495262,0.136083437 1.16250707,0.128474471"></path>
        <path id="path-153" d="M0.163857024,1.59759029 C0.190191189,2.35029265 1.85304738,2.88877335 3.87960765,2.79775841 C5.9047049,2.70791407 7.52688944,2.02457036 7.50231089,1.27128269 C7.47656193,0.517117061 5.81253533,-0.0199003736 3.78714547,0.0708219178 C1.76087781,0.160373599 0.138693267,0.84371731 0.163857024,1.59759029"></path>
        <path id="path-155" d="M0.280897756,1.40180573 C0.290261014,1.67221669 6.75910224,1.60607721 14.7301613,1.25050436 C22.7015129,0.89639477 22.0089244,0.564234122 25.5792519,0.458293898 C29.5685852,0.339476961 22.6684489,-0.0880884184 14.6976825,0.266899128 C6.72662344,0.623057285 0.271827099,1.13080946 0.280897756,1.40180573"></path>
        <path id="path-157" d="M0.29113882,1.77581569 C-0.378626766,3.39974471 0.418713217,5.44655666 2.07308396,6.34587796 C3.7286251,7.24549191 5.61210308,6.65901619 6.28333167,5.03450187 C6.95280466,3.40998755 6.15458687,1.36493151 4.50050873,0.464146949 C2.84526018,-0.434881694 0.961489609,0.152179328 0.29113882,1.77581569"></path>
        <path id="path-159" d="M0.298746467,0.276556663 C0.155078969,0.41615193 0.416957606,1.04184309 0.88482793,1.67309465 C1.35123525,2.30522416 1.84573234,2.70440224 1.98852203,2.56392902 C2.13189692,2.4246264 1.87089609,1.79864259 1.40302577,1.16768369 C0.936618454,0.535846824 0.441828761,0.1375467 0.298746467,0.276556663"></path>
        <path id="path-161" d="M0.189313383,0.142814446 C0.136645054,0.192272727 1.5838537,2.24786426 3.42110058,4.73277709 C5.25805486,7.21739726 6.78924023,9.18987547 6.84044555,9.14070984 C6.89165087,9.09066625 5.44502743,7.03507472 3.60807315,4.5507472 C1.77053367,2.06495641 0.241103907,0.0916002491 0.189313383,0.142814446"></path>
        <path id="path-163" d="M0.102995844,3.00554172 C0.310157938,3.2437609 0.998650042,2.84399751 1.64061845,2.11090286 C2.28317207,1.37868618 2.63634248,0.591158157 2.42918038,0.352353674 C2.2240665,0.113549191 1.53469659,0.513897883 0.892142976,1.24669988 C0.24958936,1.97979452 -0.104166251,2.76644458 0.102995844,3.00554172"></path>
        <path id="path-165" d="M0.195458022,10.6519676 C0.27036409,10.7385928 2.37943807,8.4717061 4.90664007,5.59112702 C7.43442727,2.70879203 9.42294929,0.302895392 9.34775062,0.217148194 C9.27401496,0.130230386 7.16406318,2.39653176 4.63715378,5.27886675 C2.10936658,8.16003113 0.120844555,10.5668057 0.195458022,10.6519676"></path>
        <path id="path-167" d="M0.23203325,234.745978 L351.806883,234.745978 L351.806883,0.23382939 L0.23203325,0.23382939 L0.23203325,234.745978 Z"></path>
    </defs>
    <g id="Espacio-Joven-" stroke="none" stroke-width="1" fill="none" fill-rule="evenodd" sketch:type="MSPage">
        <g id="Espacio-Joven" sketch:type="MSArtboardGroup" transform="translate(-147.000000, -670.000000)">
            <g id="Mask+Shadow-+-card" sketch:type="MSLayerGroup" transform="translate(140.000000, 670.000000)">
                <g id="card">
                    <mask id="mask-2" sketch:name="z" fill="white">
                        <use xlink:href="#path-1"></use>
                    </mask>
                    <use id="z" sketch:type="MSShapeGroup" xlink:href="#path-1"></use>
                    <g id="Page-1-Copy" mask="url(#mask-2)">
                        <g transform="translate(7.000000, -20.000000)">
                            <path d="M0.23203325,0.23382939 L0.23203325,234.745978 L177.815302,234.745978 L351.514281,234.745978 L351.514281,122.021775 L351.514281,0.23382939 L0.23203325,0.23382939 Z" id="Fill-1" stroke="none" sketch:type="MSShapeGroup"></path>
                            <g id="Group-8" stroke="none" stroke-width="1" fill-rule="evenodd" sketch:type="MSLayerGroup" transform="translate(221.792186, 75.211706)">
                                <g id="Group-5" transform="translate(0.000000, 47.117061)">
                                    <mask id="mask-4" sketch:name="Clip 4" fill="white">
                                        <use xlink:href="#path-3"></use>
                                    </mask>
                                    <g id="Clip-4"></g>
                                    <path d="M73.7461945,62.8986426 L37.5080432,84.4917186 L0.692588529,63.8995143 L0.114407315,21.7148194 L36.3525586,0.122036115 L73.1683059,20.7139477 L73.7461945,62.8986426 Z" id="Fill-3" sketch:type="MSShapeGroup" mask="url(#mask-4)"></path>
                                </g>
                                <path d="M50.9716775,42.2155405 L28.0571505,55.869538 L4.04068495,41.6126762 L2.93991687,13.7026949 L25.8541513,0.0486973848 L49.8703242,14.3049738 L50.9716775,42.2155405 L50.9716775,42.2155405 Z" id="Stroke-6" stroke="#FEFEFE" stroke-width="5" sketch:type="MSShapeGroup"></path>
                            </g>
                            <path d="M210.756884,127.213255 L191.889333,138.455503 L172.115301,126.717209 L171.208528,103.736082 L190.075787,92.4935417 L209.850403,104.232128 L210.756884,127.213255 L210.756884,127.213255 Z" id="Stroke-9" stroke="#FEFEFE" stroke-width="2" sketch:type="MSShapeGroup"></path>
                            <g id="Group-18" stroke="none" stroke-width="1" fill-rule="evenodd" sketch:type="MSLayerGroup">
                                <g id="Group-12">
                                    <mask id="mask-6" sketch:name="Clip 11" fill="white">
                                        <use xlink:href="#path-5"></use>
                                    </mask>
                                    <g id="Clip-11"></g>
                                    <path d="M335.541849,22.4236239 L316.674298,33.6661644 L296.900267,21.9275778 L295.993494,-1.05325654 L314.860752,-12.295797 L334.635662,-0.557210461 L335.541849,22.4236239 L335.541849,22.4236239 Z" id="Stroke-10" stroke="#FEFEFE" stroke-width="2" sketch:type="MSShapeGroup" mask="url(#mask-6)"></path>
                                </g>
                                <path d="M305.854731,132.762796 L278.017178,146.973126 L249.901361,132.710412 L249.940863,99.4018686 L277.99933,83.9761526 L305.860583,99.4615697 L305.854731,132.762796 L305.854731,132.762796 Z" id="Stroke-13" stroke="#9D9D9C" sketch:type="MSShapeGroup"></path>
                                <g id="Group-17">
                                    <mask id="mask-8" sketch:name="Clip 16" fill="white">
                                        <use xlink:href="#path-7"></use>
                                    </mask>
                                    <g id="Clip-16"></g>
                                    <path d="M344.930242,9.48519116 L317.09269,23.6952285 L288.976872,9.43280635 L289.016374,-23.8757366 L317.074841,-39.3014527 L344.936094,-23.8160355 L344.930242,9.48519116 L344.930242,9.48519116 Z" id="Stroke-15" stroke="#9D9D9C" sketch:type="MSShapeGroup" mask="url(#mask-8)"></path>
                                </g>
                            </g>
                            <path d="M219.332049,74.2861631 L185.044674,91.789127 L150.414662,74.2220722 L150.463234,33.1956961 L185.022729,14.1952291 L219.338778,33.2691519 L219.332049,74.2861631 L219.332049,74.2861631 Z" id="Stroke-19" stroke="#FEFEFE" stroke-width="6" sketch:type="MSShapeGroup"></path>
                            <g id="Group-22" stroke="none" stroke-width="1" fill-rule="evenodd" sketch:type="MSLayerGroup">
                                <mask id="mask-10" sketch:name="Clip 21" fill="white">
                                    <use xlink:href="#path-9"></use>
                                </mask>
                                <g id="Clip-21"></g>
                                <path d="M244.052338,46.7648244 L209.764378,64.2677883 L175.134659,46.7007335 L175.183524,5.67435741 L209.742433,-13.3258169 L244.058483,5.74810585 L244.052338,46.7648244 L244.052338,46.7648244 Z" id="Stroke-20" stroke="#FEFEFE" stroke-width="6" sketch:type="MSShapeGroup" mask="url(#mask-10)"></path>
                            </g>
                            <path d="M340.794374,83.9955554 L319.230204,95.0033885 L297.45068,83.9551694 L297.481403,58.1528717 L319.216452,46.2032827 L340.798763,58.1991108 L340.794374,83.9955554 L340.794374,83.9955554 Z" id="Stroke-23" stroke="#FEFEFE" stroke-width="4" sketch:type="MSShapeGroup"></path>
                            <g id="Group-33" stroke="none" stroke-width="1" fill-rule="evenodd" sketch:type="MSLayerGroup" transform="translate(168.831255, 10.535492)">
                                <g id="Group-26">
                                    <mask id="mask-12" sketch:name="Clip 25" fill="white">
                                        <use xlink:href="#path-11"></use>
                                    </mask>
                                    <g id="Clip-25"></g>
                                    <path d="M36.9125985,31.4566376 L18.8403392,42.2250809 L0.480452203,31.9556102 L0.192532003,10.9179888 L18.2642062,0.149838107 L36.6246783,10.4190162 L36.9125985,31.4566376 Z" id="Fill-24" sketch:type="MSShapeGroup" mask="url(#mask-12)"></path>
                                </g>
                                <g id="Group-29" transform="translate(22.530341, 47.702366)">
                                    <mask id="mask-14" sketch:name="Clip 28" fill="white">
                                        <use xlink:href="#path-13"></use>
                                    </mask>
                                    <g id="Clip-28"></g>
                                    <path d="M36.8412037,31.5988667 L18.7692369,42.3670174 L0.409057357,32.0978394 L0.121137157,11.0599253 L18.1931039,0.291774595 L36.5535761,10.5609527 L36.8412037,31.5988667 Z" id="Fill-27" sketch:type="MSShapeGroup" mask="url(#mask-14)"></path>
                                </g>
                                <g id="Group-32" transform="translate(50.034913, 98.623910)">
                                    <mask id="mask-16" sketch:name="Clip 31" fill="white">
                                        <use xlink:href="#path-15"></use>
                                    </mask>
                                    <g id="Clip-31"></g>
                                    <path d="M22.5607714,19.1936177 L11.5530906,25.7528394 L0.369263508,19.4976837 L0.194287614,6.6830137 L11.202261,0.12379203 L22.3855029,6.37924035 L22.5607714,19.1936177 Z" id="Fill-30" sketch:type="MSShapeGroup" mask="url(#mask-16)"></path>
                                </g>
                            </g>
                            <path d="M331.044501,171.269171 L287.867882,192.726456 L244.734569,170.260397 L245.347862,118.880267 L288.884966,95.5508829 L331.604833,119.901039 L331.044501,171.269171 L331.044501,171.269171 Z" id="Stroke-34" stroke="#FEFEFE" stroke-width="5" sketch:type="MSShapeGroup"></path>
                            <g id="Group-50" stroke="none" stroke-width="1" fill-rule="evenodd" sketch:type="MSLayerGroup">
                                <path d="M268.416298,70.4892304 L246.127646,81.8669763 L223.616325,70.4473811 L223.647926,43.7785392 L246.113016,31.4274309 L268.420687,43.8262416 L268.416298,70.4892304 L268.416298,70.4892304 Z" id="Stroke-35" stroke="#9D9D9C" sketch:type="MSShapeGroup"></path>
                                <path d="M157.21704,61.9700268 L136.390812,72.6012161 L115.356545,61.9308113 L115.385805,37.0114465 L136.37706,25.4709857 L157.221722,37.0562223 L157.21704,61.9700268 L157.21704,61.9700268 Z" id="Stroke-37" stroke="#9D9D9C" sketch:type="MSShapeGroup"></path>
                                <g id="Group-41">
                                    <mask id="mask-18" sketch:name="Clip 40" fill="white">
                                        <use xlink:href="#path-17"></use>
                                    </mask>
                                    <g id="Clip-40"></g>
                                </g>
                                <g id="Group-44">
                                    <mask id="mask-20" sketch:name="Clip 43" fill="white">
                                        <use xlink:href="#path-19"></use>
                                    </mask>
                                    <g id="Clip-43"></g>
                                    <path d="M356.46999,83.5372908 L335.643763,94.1684801 L314.609202,83.498368 L314.639048,58.5787105 L335.630596,47.0382497 L356.474379,58.6234863 L356.46999,83.5372908 L356.46999,83.5372908 Z" id="Stroke-42" stroke="#9D9D9C" sketch:type="MSShapeGroup" mask="url(#mask-20)"></path>
                                </g>
                                <path d="M347.745394,207.418902 L316.316154,223.462407 L284.572074,207.360078 L284.617134,169.753347 L316.295671,152.337301 L347.751538,169.82095 L347.745394,207.418902 L347.745394,207.418902 Z" id="Stroke-45" stroke="#9D9D9C" sketch:type="MSShapeGroup"></path>
                                <g id="Group-49">
                                    <mask id="mask-22" sketch:name="Clip 48" fill="white">
                                        <use xlink:href="#path-21"></use>
                                    </mask>
                                    <g id="Clip-48"></g>
                                    <path d="M257.111685,4.81732441 L225.682445,20.8611227 L193.938657,4.75850125 L193.983425,-32.8482298 L225.661962,-50.2642758 L257.118415,-32.780627 L257.111685,4.81732441 L257.111685,4.81732441 Z" id="Stroke-47" stroke="#9D9D9C" sketch:type="MSShapeGroup" mask="url(#mask-22)"></path>
                                </g>
                            </g>
                            <path d="M333.31076,150.618026 L314.329972,160.307167 L295.158993,150.582323 L295.186205,127.870729 L314.317976,117.352503 L333.314857,127.9117 L333.31076,150.618026 L333.31076,150.618026 Z" id="Stroke-51" stroke="#FEFEFE" stroke-width="2" sketch:type="MSShapeGroup"></path>
                            <path d="M314.612245,210.875597 L295.631165,220.564737 L276.460186,210.840186 L276.487398,188.128299 L295.618875,177.610366 L314.616049,188.16927 L314.612245,210.875597 L314.612245,210.875597 Z" id="Stroke-52" stroke="#FEFEFE" stroke-width="2" sketch:type="MSShapeGroup"></path>
                            <path d="M58.4696286,144.640071 L30.4948456,158.542823 L2.54756708,143.986578 L2.94462776,110.696179 L31.1534923,95.5800897 L58.8327475,111.357281 L58.4696286,144.640071 L58.4696286,144.640071 Z" id="Stroke-53" stroke="#FEFEFE" stroke-width="5" sketch:type="MSShapeGroup"></path>
                            <path d="M300.417341,103.467252 L281.43626,113.156392 L262.265573,103.431548 L262.292493,80.7199539 L281.424263,70.2020212 L300.421144,80.7609253 L300.417341,103.467252 L300.417341,103.467252 Z" id="Stroke-55" stroke="#FEFEFE" stroke-width="2" sketch:type="MSShapeGroup"></path>
                            <path d="M161.277446,45.4541507 L142.296366,55.1432914 L123.125679,45.4187397 L123.152599,22.7071457 L142.284369,12.1889203 L161.28125,22.7478244 L161.277446,45.4541507 L161.277446,45.4541507 Z" id="Stroke-56" stroke="#FEFEFE" stroke-width="2" sketch:type="MSShapeGroup"></path>
                            <path d="M294.433545,51.297076 L272.869083,62.3046164 L251.089559,51.2566899 L251.120282,25.4543923 L272.855331,13.5045106 L294.437642,25.5003387 L294.433545,51.297076 L294.433545,51.297076 Z" id="Stroke-57" stroke="#FEFEFE" stroke-width="4" sketch:type="MSShapeGroup"></path>
                            <g id="Group-304" stroke="none" stroke-width="1" fill-rule="evenodd" sketch:type="MSLayerGroup">
                                <g id="Group-60">
                                    <mask id="mask-24" sketch:name="Clip 59" fill="white">
                                        <use xlink:href="#path-23"></use>
                                    </mask>
                                    <g id="Clip-59"></g>
                                    <path d="M351.806883,235.136083 L-0.720093101,235.136083 L-0.720093101,0.23382939 L351.806883,0.23382939 L351.806883,235.136083 Z" id="Fill-58" sketch:type="MSShapeGroup" mask="url(#mask-24)"></path>
                                </g>
                                <g id="Group-63" transform="translate(273.875312, 79.308842)">
                                    <mask id="mask-26" sketch:name="Clip 62" fill="white">
                                        <use xlink:href="#path-25"></use>
                                    </mask>
                                    <g id="Clip-62"></g>
                                    <path d="M2.3367182,0.449806974 C0.544239401,1.28386675 -0.219743973,3.91130137 0.629971737,6.31749066 C1.47998005,8.72455791 3.62182544,9.99935243 5.41459684,9.165 C7.20707564,8.33064757 7.97076642,5.70321295 7.12105071,3.29673101 C6.27104239,0.890541719 4.12919701,-0.384545455 2.3367182,0.449806974" id="Fill-61" sketch:type="MSShapeGroup" mask="url(#mask-26)"></path>
                                </g>
                                <g id="Group-66" transform="translate(277.386534, 82.235367)">
                                    <mask id="mask-28" sketch:name="Clip 65" fill="white">
                                        <use xlink:href="#path-27"></use>
                                    </mask>
                                    <g id="Clip-65"></g>
                                    <path d="M0.561795511,0.276849315 C0.329469659,0.266313823 0.112944306,1.08691158 0.0778320865,2.1094396 C0.0418420615,3.13255293 0.201895262,3.96983188 0.434513716,3.98036737 C0.666254364,3.99061021 0.883364921,3.17089041 0.918184539,2.14748443 C0.953881962,1.12495641 0.794413965,0.287384807 0.561795511,0.276849315" id="Fill-64" sketch:type="MSShapeGroup" mask="url(#mask-28)"></path>
                                </g>
                                <g id="Group-69" transform="translate(277.386534, 76.967621)">
                                    <mask id="mask-30" sketch:name="Clip 68" fill="white">
                                        <use xlink:href="#path-29"></use>
                                    </mask>
                                    <g id="Clip-68"></g>
                                    <path d="M0.775394846,0.141643836 C0.691418121,0.1375467 0.510590191,3.39594022 0.372189526,7.41932752 C0.233496259,11.4433001 0.189020781,14.7078394 0.272704904,14.7116438 C0.356681629,14.714863 0.536631754,11.4567621 0.675032419,7.43337484 C0.814018288,3.40998755 0.859371571,0.145740971 0.775394846,0.141643836" id="Fill-67" sketch:type="MSShapeGroup" mask="url(#mask-30)"></path>
                                </g>
                                <g id="Group-72" transform="translate(275.923525, 83.405978)">
                                    <mask id="mask-32" sketch:name="Clip 71" fill="white">
                                        <use xlink:href="#path-31"></use>
                                    </mask>
                                    <g id="Clip-71"></g>
                                    <path d="M0.0728578554,1.1343213 C0.087195345,1.54959527 1.00479468,1.84663761 2.12311887,1.79659402 C3.24027265,1.74684309 4.13534165,1.3699066 4.12158936,0.954339975 C4.10754447,0.538188045 3.18965254,0.241731009 2.07220615,0.291774595 C0.953881962,0.341232877 0.0591055694,0.718169365 0.0728578554,1.1343213" id="Fill-70" sketch:type="MSShapeGroup" mask="url(#mask-32)"></path>
                                </g>
                                <g id="Group-75" transform="translate(270.071488, 83.991283)">
                                    <mask id="mask-34" sketch:name="Clip 74" fill="white">
                                        <use xlink:href="#path-33"></use>
                                    </mask>
                                    <g id="Clip-74"></g>
                                    <path d="M0.0160931006,0.763823163 C0.0210673317,0.913075965 3.59022444,0.876494396 7.98861513,0.680417186 C12.3867132,0.485217933 12.0045752,0.301724782 13.9743707,0.243194271 C16.1759069,0.1776401 12.3682793,-0.0579452055 7.97047382,0.137839352 C3.57237573,0.334209215 0.0108262677,0.614570361 0.0160931006,0.763823163" id="Fill-73" sketch:type="MSShapeGroup" mask="url(#mask-34)"></path>
                                </g>
                                <g id="Group-78" transform="translate(275.923525, 82.528020)">
                                    <mask id="mask-36" sketch:name="Clip 77" fill="white">
                                        <use xlink:href="#path-35"></use>
                                    </mask>
                                    <g id="Clip-77"></g>
                                    <path d="M0.304598504,0.980386052 C-0.064957606,1.87648817 0.375115544,3.00554172 1.28774065,3.50188045 C2.20095096,3.99821918 3.24027265,3.67454545 3.61041397,2.77844334 C3.97997007,1.88204857 3.53960432,0.753580324 2.62727182,0.256656289 C1.71376891,-0.239389788 0.674447215,0.0842839352 0.304598504,0.980386052" id="Fill-76" sketch:type="MSShapeGroup" mask="url(#mask-36)"></path>
                                </g>
                                <g id="Group-81" transform="translate(277.386534, 83.698630)">
                                    <mask id="mask-38" sketch:name="Clip 80" fill="white">
                                        <use xlink:href="#path-37"></use>
                                    </mask>
                                    <g id="Clip-80"></g>
                                    <path d="M0.136937656,0.112963885 C0.0579351621,0.189638854 0.202480466,0.535261519 0.460555278,0.883225405 C0.717752286,1.23206725 0.990749792,1.45243462 1.06975229,1.37488169 C1.14846218,1.29791407 1.00450208,0.95258406 0.746427265,0.604327522 C0.489230258,0.255778331 0.216232751,0.035996264 0.136937656,0.112963885" id="Fill-79" sketch:type="MSShapeGroup" mask="url(#mask-38)"></path>
                                </g>
                                <g id="Group-84" transform="translate(275.923525, 81.942715)">
                                    <mask id="mask-40" sketch:name="Clip 83" fill="white">
                                        <use xlink:href="#path-39"></use>
                                    </mask>
                                    <g id="Clip-83"></g>
                                    <path d="M0.248126351,0.0184371108 C0.21915877,0.0459464508 1.01796176,1.17997509 2.0315345,2.5510523 C3.04510723,3.92212951 3.88984871,5.01050436 3.91823109,4.98328767 C3.94632086,4.95548568 3.14810308,3.82145704 2.13453034,2.45096513 C1.120665,1.07900996 0.27680133,-0.00965753425 0.248126351,0.0184371108" id="Fill-82" sketch:type="MSShapeGroup" mask="url(#mask-40)"></path>
                                </g>
                                <g id="Group-87" transform="translate(277.093932, 83.405978)">
                                    <mask id="mask-42" sketch:name="Clip 86" fill="white">
                                        <use xlink:href="#path-41"></use>
                                    </mask>
                                    <g id="Clip-86"></g>
                                    <path d="M0.321862012,1.74976961 C0.436269327,1.88117061 0.815773899,1.66051059 1.17011471,1.25606476 C1.52474813,0.851911582 1.71962095,0.417615193 1.60550623,0.285921544 C1.49197672,0.153935243 1.11159435,0.37488792 0.757253533,0.779333748 C0.402620116,1.18348692 0.207454697,1.61778331 0.321862012,1.74976961" id="Fill-85" sketch:type="MSShapeGroup" mask="url(#mask-42)"></path>
                                </g>
                                <g id="Group-90" transform="translate(275.338321, 81.357410)">
                                    <mask id="mask-44" sketch:name="Clip 89" fill="white">
                                        <use xlink:href="#path-43"></use>
                                    </mask>
                                    <g id="Clip-89"></g>
                                    <path d="M0.191361596,5.91831258 C0.232325852,5.96601494 1.39629593,4.71492528 2.79025104,3.12582192 C4.18508396,1.53554795 5.28234081,0.207783313 5.24079135,0.160666252 C5.2001197,0.112671233 4.03585702,1.36317559 2.64190191,2.95344956 C1.24706899,4.54313823 0.149812136,5.87119552 0.191361596,5.91831258" id="Fill-88" sketch:type="MSShapeGroup" mask="url(#mask-44)"></path>
                                </g>
                                <g id="Group-99" transform="translate(184.046550, 9.657534)">
                                    <mask id="mask-46" sketch:name="Clip 98" fill="white">
                                        <use xlink:href="#path-45"></use>
                                    </mask>
                                    <g id="Clip-98"></g>
                                    <path id="Fill-97" sketch:type="MSShapeGroup" mask="url(#mask-46)" d="M0.413738986,0.0573599004 C0.352,0.0547260274 0.219743973,2.43603985 0.119088944,5.3766127 C0.0172635079,8.31777086 -0.0146300914,10.7040598 0.0462310889,10.7066936 C0.107384871,10.7090349 0.239348296,8.32772105 0.340003325,5.38685554 C0.441828761,2.44628269 0.474892768,0.0602864259 0.413738986,0.0573599004"></path>
                                </g>
                                <g id="Group-123" transform="translate(222.084788, 100.087173)">
                                    <mask id="mask-48" sketch:name="Clip 122" fill="white">
                                        <use xlink:href="#path-47"></use>
                                    </mask>
                                    <g id="Clip-122"></g>
                                    <path d="M3.92847215,0.568038605 C0.592226101,2.1205604 -0.829818786,7.01078456 0.751694098,11.4898319 C2.33408479,15.9697572 6.3207847,18.3428767 9.65703076,16.7897696 C12.9935694,15.2363699 14.4147365,10.3464384 12.8338088,5.86709838 C11.2514181,1.38834371 7.2644256,-0.984775841 3.92847215,0.568038605" id="Fill-121" sketch:type="MSShapeGroup" mask="url(#mask-48)"></path>
                                </g>
                                <g id="Group-126" transform="translate(228.229426, 105.647572)">
                                    <mask id="mask-50" sketch:name="Clip 125" fill="white">
                                        <use xlink:href="#path-49"></use>
                                    </mask>
                                    <g id="Clip-125"></g>
                                    <path d="M1.01591355,0.132864259 C0.583740648,0.112963885 0.180242727,1.64031756 0.114699917,3.54314446 C0.0479866999,5.44801993 0.345855362,7.00668742 0.778320865,7.02570984 C1.20990856,7.04531756 1.61428429,5.51942715 1.6792419,3.61484433 C1.74507731,1.71113948 1.44867165,0.15247198 1.01591355,0.132864259" id="Fill-124" sketch:type="MSShapeGroup" mask="url(#mask-50)"></path>
                                </g>
                                <g id="Group-129" transform="translate(228.522028, 95.697385)">
                                    <mask id="mask-52" sketch:name="Clip 128" fill="white">
                                        <use xlink:href="#path-51"></use>
                                    </mask>
                                    <g id="Clip-128"></g>
                                    <path d="M1.1200798,0.0266313823 C0.964123026,0.0190224159 0.627923525,6.08366127 0.370433915,13.5723474 C0.1120665,21.0616189 0.0292601829,27.1385492 0.185216958,27.1455729 C0.340881131,27.1514259 0.676495428,21.0873724 0.933985037,13.5983935 C1.19293766,6.10970735 1.27691438,0.0339476961 1.1200798,0.0266313823" id="Fill-127" sketch:type="MSShapeGroup" mask="url(#mask-52)"></path>
                                </g>
                                <g id="Group-132" transform="translate(225.596010, 107.696139)">
                                    <mask id="mask-54" sketch:name="Clip 131" fill="white">
                                        <use xlink:href="#path-53"></use>
                                    </mask>
                                    <g id="Clip-131"></g>
                                    <path d="M0.0158004988,1.85892902 C0.042719867,2.63211706 1.75063674,3.18493773 3.83191355,3.09158157 C5.91143475,2.99910336 7.57750956,2.29761519 7.5523458,1.52384184 C7.52601164,0.749483188 5.81663175,0.197540473 3.73681796,0.29118929 C1.65612635,0.383082192 -0.010241064,1.08457036 0.0158004988,1.85892902" id="Fill-130" sketch:type="MSShapeGroup" mask="url(#mask-54)"></path>
                                </g>
                                <g id="Group-135" transform="translate(214.477140, 108.574097)">
                                    <mask id="mask-56" sketch:name="Clip 134" fill="white">
                                        <use xlink:href="#path-55"></use>
                                    </mask>
                                    <g id="Clip-134"></g>
                                    <path d="M0.136352452,1.3810274 C0.145715711,1.65875467 6.78924023,1.59056663 14.9756542,1.22562889 C23.1623608,0.862154421 22.4510457,0.520921544 26.1176392,0.412054795 C30.21465,0.29001868 23.1281264,-0.148960149 14.9422976,0.215684932 C6.75588362,0.581500623 0.126989194,1.10271482 0.136352452,1.3810274" id="Fill-133" sketch:type="MSShapeGroup" mask="url(#mask-56)"></path>
                                </g>
                                <g id="Group-138" transform="translate(225.596010, 105.647572)">
                                    <mask id="mask-58" sketch:name="Clip 137" fill="white">
                                        <use xlink:href="#path-57"></use>
                                    </mask>
                                    <g id="Clip-137"></g>
                                    <path d="M0.447095594,1.98681818 C-0.240811305,3.65464508 0.577888612,5.75647572 2.27732003,6.68008717 C3.97704406,7.60399128 5.91143475,7.00171233 6.60080466,5.33359278 C7.28871155,3.66518057 6.46854863,1.5648132 4.76999501,0.639738481 C3.07027099,-0.283872976 1.1355877,0.318991283 0.447095594,1.98681818" id="Fill-136" sketch:type="MSShapeGroup" mask="url(#mask-58)"></path>
                                </g>
                                <g id="Group-141" transform="translate(228.229426, 107.988792)">
                                    <mask id="mask-60" sketch:name="Clip 140" fill="white">
                                        <use xlink:href="#path-59"></use>
                                    </mask>
                                    <g id="Clip-140"></g>
                                    <path d="M0.225303408,0.20983188 C0.0778320865,0.352938979 0.346733167,0.995896638 0.827477972,1.64353674 C1.30617456,2.29293275 1.81413134,2.70293898 1.96101746,2.55866127 C2.10848878,2.41584682 1.8401729,1.77318182 1.3597207,1.12466376 C0.880146301,0.475853051 0.372482128,0.0670174346 0.225303408,0.20983188" id="Fill-139" sketch:type="MSShapeGroup" mask="url(#mask-60)"></path>
                                </g>
                                <g id="Group-144" transform="translate(225.888612, 104.476961)">
                                    <mask id="mask-62" sketch:name="Clip 143" fill="white">
                                        <use xlink:href="#path-61"></use>
                                    </mask>
                                    <g id="Clip-143"></g>
                                    <path d="M0.0497423109,0.278019925 C-0.0040964256,0.328941469 1.48202826,2.43984433 3.36872485,4.9917746 C5.25542145,7.54370486 6.82757107,9.56944583 6.880532,9.51910959 C6.93320033,9.46731009 5.44736825,7.35611457 3.56067165,4.80476961 C1.67368246,2.25196139 0.102995844,0.225635118 0.0497423109,0.278019925" id="Fill-142" sketch:type="MSShapeGroup" mask="url(#mask-62)"></path>
                                </g>
                                <g id="Group-147" transform="translate(227.936825, 107.696139)">
                                    <mask id="mask-64" sketch:name="Clip 146" fill="white">
                                        <use xlink:href="#path-63"></use>
                                    </mask>
                                    <g id="Clip-146"></g>
                                    <path d="M0.316887781,3.00437111 C0.52960931,3.24902864 1.23653533,2.83843711 1.89605985,2.08573474 C2.55616958,1.33361768 2.91870324,0.524726027 2.70598171,0.279775841 C2.4953084,0.0342403487 1.78721197,0.445124533 1.12739485,1.19811955 C0.467577722,1.95082192 0.104166251,2.75912827 0.316887781,3.00437111" id="Fill-145" sketch:type="MSShapeGroup" mask="url(#mask-64)"></path>
                                </g>
                                <g id="Group-150" transform="translate(224.718204, 103.891656)">
                                    <mask id="mask-66" sketch:name="Clip 149" fill="white">
                                        <use xlink:href="#path-65"></use>
                                    </mask>
                                    <g id="Clip-149"></g>
                                    <path d="M0.0245785536,10.7546887 C0.101532835,10.843655 2.26737157,8.51560399 4.86304239,5.55717933 C7.45871322,2.59699875 9.50107398,0.12613325 9.4235345,0.0383374844 C9.34804323,-0.0512141968 7.18103408,2.27625156 4.58624106,5.23643213 C1.99027764,8.19514944 -0.0520831255,10.6671856 0.0245785536,10.7546887" id="Fill-148" sketch:type="MSShapeGroup" mask="url(#mask-66)"></path>
                                </g>
                                <g id="Group-153" transform="translate(116.455528, 12.876712)">
                                    <mask id="mask-68" sketch:name="Clip 152" fill="white">
                                        <use xlink:href="#path-67"></use>
                                    </mask>
                                    <g id="Clip-152"></g>
                                    <path d="M4.05487614,0.70265878 C0.71833749,2.25518057 -0.703122195,7.14569738 0.877805486,11.6244521 C2.46078138,16.1043773 6.44718869,18.4774969 9.78372735,16.9243898 C13.1199734,15.37099 14.5414331,10.4810585 12.9599202,6.00171856 C11.3778221,1.52296389 7.39082959,-0.850155666 4.05487614,0.70265878" id="Fill-151" sketch:type="MSShapeGroup" mask="url(#mask-68)"></path>
                                </g>
                                <g id="Group-156" transform="translate(122.600166, 18.437111)">
                                    <mask id="mask-70" sketch:name="Clip 155" fill="white">
                                        <use xlink:href="#path-69"></use>
                                    </mask>
                                    <g id="Clip-155"></g>
                                    <path d="M1.14261014,0.267484433 C0.710144638,0.24758406 0.306646717,1.77493773 0.241396509,3.67805729 C0.17439069,5.5826401 0.472551953,7.14160025 0.904724855,7.16033001 C1.33631255,7.17993773 1.74098088,5.65404732 1.80535328,3.74946451 C1.8717739,1.8460523 1.57478304,0.287092154 1.14261014,0.267484433" id="Fill-154" sketch:type="MSShapeGroup" mask="url(#mask-70)"></path>
                                </g>
                                <g id="Group-159" transform="translate(122.892768, 8.486924)">
                                    <mask id="mask-72" sketch:name="Clip 158" fill="white">
                                        <use xlink:href="#path-71"></use>
                                    </mask>
                                    <g id="Clip-158"></g>
                                    <path d="M1.24677639,0.161251557 C1.09081962,0.15364259 0.754327515,6.21828144 0.496837905,13.7069676 C0.23847049,21.1965318 0.155956775,27.2731694 0.311620948,27.2799004 C0.467285121,27.2860461 0.802899418,21.2219925 1.06038903,13.7330137 C1.31934165,6.24432752 1.40302577,0.16856787 1.24677639,0.161251557" id="Fill-157" sketch:type="MSShapeGroup" mask="url(#mask-72)"></path>
                                </g>
                                <g id="Group-162" transform="translate(119.966750, 20.778331)">
                                    <mask id="mask-74" sketch:name="Clip 161" fill="white">
                                        <use xlink:href="#path-73"></use>
                                    </mask>
                                    <g id="Clip-161"></g>
                                    <path d="M0.142204489,1.70118929 C0.169123857,2.47408468 1.87704073,3.02719801 3.95831754,2.93354919 C6.03783874,2.84107098 7.70391355,2.13929016 7.67874979,1.36580946 C7.65241563,0.591450809 5.94332835,0.0395080946 3.86322195,0.133156912 C1.78223774,0.224757161 0.116455528,0.926830635 0.142204489,1.70118929" id="Fill-160" sketch:type="MSShapeGroup" mask="url(#mask-74)"></path>
                                </g>
                                <g id="Group-165" transform="translate(108.847880, 21.363636)">
                                    <mask id="mask-76" sketch:name="Clip 164" fill="white">
                                        <use xlink:href="#path-75"></use>
                                    </mask>
                                    <g id="Clip-164"></g>
                                    <path d="M0.263049044,1.51564757 C0.272412303,1.79337484 6.91593682,1.72547945 15.1023508,1.36024907 C23.2887648,0.996774595 22.5774497,0.655541719 26.2440432,0.546674969 C30.341054,0.424931507 23.2545303,-0.0140473225 15.068409,0.350305106 C6.88258022,0.716120797 0.253685786,1.23762765 0.263049044,1.51564757" id="Fill-163" sketch:type="MSShapeGroup" mask="url(#mask-76)"></path>
                                </g>
                                <g id="Group-168" transform="translate(120.259352, 18.729763)">
                                    <mask id="mask-78" sketch:name="Clip 167" fill="white">
                                        <use xlink:href="#path-77"></use>
                                    </mask>
                                    <g id="Clip-167"></g>
                                    <path d="M0.280897756,1.82907846 C-0.406716542,3.4966127 0.411983375,5.59873599 2.11082959,6.52234745 C3.81113882,7.44625156 5.74523691,6.8439726 6.43489942,5.1755604 C7.12222111,3.50714819 6.30235079,1.40707347 4.60408978,0.481706102 C2.90378055,-0.441612702 0.969389859,0.161251557 0.280897756,1.82907846" id="Fill-166" sketch:type="MSShapeGroup" mask="url(#mask-78)"></path>
                                </g>
                                <g id="Group-171" transform="translate(122.892768, 21.070984)">
                                    <mask id="mask-80" sketch:name="Clip 170" fill="white">
                                        <use xlink:href="#path-79"></use>
                                    </mask>
                                    <g id="Clip-170"></g>
                                    <path d="M0.0593981712,0.0517995019 C-0.0883657523,0.195199253 0.18082793,0.837864259 0.660987531,1.48579701 C1.13997672,2.13490037 1.6479335,2.54519925 1.79452702,2.40062889 C1.94199834,2.25781445 1.67368246,1.61514944 1.19323026,0.966631382 C0.714241064,0.317820672 0.205991687,-0.0913075965 0.0593981712,0.0517995019" id="Fill-169" sketch:type="MSShapeGroup" mask="url(#mask-80)"></path>
                                </g>
                                <g id="Group-174" transform="translate(120.259352, 17.559153)">
                                    <mask id="mask-82" sketch:name="Clip 173" fill="white">
                                        <use xlink:href="#path-81"></use>
                                    </mask>
                                    <g id="Clip-173"></g>
                                    <path d="M0.176146301,0.119987547 C0.122014963,0.170909091 1.60843225,2.28181196 3.49542145,4.83374222 C5.38182544,7.38567248 6.95426766,9.41141345 7.0072286,9.36107721 C7.05931172,9.30927771 5.57377224,7.19837484 3.68707564,4.64673724 C1.80037905,2.09392902 0.229399834,0.0676027397 0.176146301,0.119987547" id="Fill-172" sketch:type="MSShapeGroup" mask="url(#mask-82)"></path>
                                </g>
                                <g id="Group-177" transform="translate(122.600166, 20.778331)">
                                    <mask id="mask-84" sketch:name="Clip 176" fill="white">
                                        <use xlink:href="#path-83"></use>
                                    </mask>
                                    <g id="Clip-176"></g>
                                    <path d="M0.150689942,2.84633873 C0.363704073,3.09099626 1.07063009,2.68040473 1.72986201,1.92770237 C2.38967914,1.17558531 2.752798,0.366693649 2.53978387,0.121743462 C2.32911056,-0.12379203 1.62072153,0.287384807 0.961489609,1.04008717 C0.301379884,1.79278954 -0.0617389859,2.60109589 0.150689942,2.84633873" id="Fill-175" sketch:type="MSShapeGroup" mask="url(#mask-84)"></path>
                                </g>
                                <g id="Group-180" transform="translate(119.088944, 16.681196)">
                                    <mask id="mask-86" sketch:name="Clip 179" fill="white">
                                        <use xlink:href="#path-85"></use>
                                    </mask>
                                    <g id="Clip-179"></g>
                                    <path d="M0.150982544,10.8893088 C0.227936825,10.9782752 2.39406816,8.65022416 4.98915378,5.6917995 C7.58511721,2.73161893 9.62777057,0.260753425 9.55023109,0.172957659 C9.47444722,0.0834059776 7.30773067,2.41116438 4.71264505,5.3710523 C2.11668163,8.32976961 0.0740282627,10.8018057 0.150982544,10.8893088" id="Fill-178" sketch:type="MSShapeGroup" mask="url(#mask-86)"></path>
                                </g>
                                <g id="Group-183" transform="translate(299.916874, 174.128269)">
                                    <mask id="mask-88" sketch:name="Clip 182" fill="white">
                                        <use xlink:href="#path-87"></use>
                                    </mask>
                                    <g id="Clip-182"></g>
                                    <path d="M3.94105403,0.688026152 C0.60480798,2.24025529 -0.816944306,7.13047945 0.764275977,11.6095268 C2.34695927,16.0894521 6.33336658,18.4625716 9.66990524,16.9094645 C13.0064439,15.3563574 14.427611,10.4664259 12.8466833,5.98679328 C11.264,1.50774595 7.27700748,-0.865080946 3.94105403,0.688026152" id="Fill-181" sketch:type="MSShapeGroup" mask="url(#mask-88)"></path>
                                </g>
                                <g id="Group-186" transform="translate(306.061513, 179.688667)">
                                    <mask id="mask-90" sketch:name="Clip 185" fill="white">
                                        <use xlink:href="#path-89"></use>
                                    </mask>
                                    <g id="Clip-185"></g>
                                    <path d="M1.02878803,0.252559153 C0.596322527,0.23265878 0.193117207,1.76030511 0.127574397,3.663132 C0.0608611804,5.56742217 0.358729842,7.12667497 0.790902743,7.14540473 C1.22249044,7.16501245 1.62715877,5.63941469 1.69211638,3.73453923 C1.75795179,1.83112702 1.46154613,0.272166874 1.02878803,0.252559153" id="Fill-184" sketch:type="MSShapeGroup" mask="url(#mask-90)"></path>
                                </g>
                                <g id="Group-189" transform="translate(306.354115, 169.738481)">
                                    <mask id="mask-92" sketch:name="Clip 188" fill="white">
                                        <use xlink:href="#path-91"></use>
                                    </mask>
                                    <g id="Clip-188"></g>
                                    <path d="M1.13295428,0.146033624 C0.976997506,0.139009963 0.640798005,6.20335616 0.383015794,13.6920423 C0.124648379,21.1816065 0.0421346633,27.2582441 0.197798836,27.2649751 C0.353755611,27.2711208 0.689077307,21.2070672 0.946859518,13.7183811 C1.20551953,6.22940224 1.28949626,0.15364259 1.13295428,0.146033624" id="Fill-187" sketch:type="MSShapeGroup" mask="url(#mask-92)"></path>
                                </g>
                                <g id="Group-192" transform="translate(303.428096, 182.029888)">
                                    <mask id="mask-94" sketch:name="Clip 191" fill="white">
                                        <use xlink:href="#path-93"></use>
                                    </mask>
                                    <g id="Clip-191"></g>
                                    <path d="M0.0286749792,1.68597136 C0.0555943475,2.45886675 1.76351122,3.01198007 3.84449543,2.91891656 C5.92430923,2.82643836 7.59038404,2.12465753 7.56522028,1.35088418 C7.53859352,0.576525529 5.82950623,0.024875467 3.74969244,0.117938979 C1.66870823,0.210417186 0.00263341646,0.911612702 0.0286749792,1.68597136" id="Fill-190" sketch:type="MSShapeGroup" mask="url(#mask-94)"></path>
                                </g>
                                <g id="Group-195" transform="translate(292.309227, 182.615193)">
                                    <mask id="mask-96" sketch:name="Clip 194" fill="white">
                                        <use xlink:href="#path-95"></use>
                                    </mask>
                                    <g id="Clip-194"></g>
                                    <path d="M0.149226933,1.50101494 C0.158590191,1.77874222 6.80211471,1.71055417 14.9885287,1.34561644 C23.1749426,0.981849315 22.4636276,0.640616438 26.1302211,0.531749689 C30.2272319,0.409713574 23.1407082,-0.0292652553 14.9551721,0.335379826 C6.7687581,0.701195517 0.139863674,1.22299502 0.149226933,1.50101494" id="Fill-193" sketch:type="MSShapeGroup" mask="url(#mask-96)"></path>
                                </g>
                                <g id="Group-198" transform="translate(303.428096, 179.981320)">
                                    <mask id="mask-98" sketch:name="Clip 197" fill="white">
                                        <use xlink:href="#path-97"></use>
                                    </mask>
                                    <g id="Clip-197"></g>
                                    <path d="M0.459970075,1.81415318 C-0.227936825,3.48168742 0.590763092,5.58351806 2.29019451,6.50712951 C3.98991854,7.43103362 5.92430923,6.82904732 6.61367914,5.16063512 C7.30129343,3.49251557 6.48142311,1.39214819 4.78286949,0.467073474 C3.08285287,-0.456830635 1.14816958,0.146033624 0.459970075,1.81415318" id="Fill-196" sketch:type="MSShapeGroup" mask="url(#mask-98)"></path>
                                </g>
                                <g id="Group-201" transform="translate(306.061513, 182.322540)">
                                    <mask id="mask-100" sketch:name="Clip 200" fill="white">
                                        <use xlink:href="#path-99"></use>
                                    </mask>
                                    <g id="Clip-200"></g>
                                    <path d="M0.238177889,0.0368742217 C0.0904139651,0.17998132 0.359607648,0.823231631 0.839767249,1.47057908 C1.31875644,2.11997509 1.82700582,2.53027397 1.97359933,2.38599626 C2.12107066,2.24288917 1.85275478,1.60022416 1.37230258,0.951998755 C0.893020781,0.303188045 0.385356608,-0.105940224 0.238177889,0.0368742217" id="Fill-199" sketch:type="MSShapeGroup" mask="url(#mask-100)"></path>
                                </g>
                                <g id="Group-204" transform="translate(303.720698, 178.810710)">
                                    <mask id="mask-102" sketch:name="Clip 203" fill="white">
                                        <use xlink:href="#path-101"></use>
                                    </mask>
                                    <g id="Clip-203"></g>
                                    <path d="M0.0623241895,0.105062267 C0.00877805486,0.156276463 1.49490274,2.26717933 3.38159933,4.81881694 C5.26800333,7.37045455 6.84044555,9.39619552 6.89340648,9.34615193 C6.94607481,9.29435243 5.46024273,7.18344956 3.57354613,4.63210461 C1.68655694,2.07900374 0.115577722,0.0529701121 0.0623241895,0.105062267" id="Fill-202" sketch:type="MSShapeGroup" mask="url(#mask-102)"></path>
                                </g>
                                <g id="Group-207" transform="translate(305.768911, 182.029888)">
                                    <mask id="mask-104" sketch:name="Clip 206" fill="white">
                                        <use xlink:href="#path-103"></use>
                                    </mask>
                                    <g id="Clip-206"></g>
                                    <path d="M0.329762261,2.83141345 C0.542483791,3.07607098 1.24940981,2.66547945 1.90893433,1.91277709 C2.56904406,1.16066002 2.93157772,0.352061021 2.71856359,0.106818182 C2.50818288,-0.138424658 1.80008645,0.272459527 1.14026933,1.02545455 C0.480159601,1.77815691 0.117040732,2.58617061 0.329762261,2.83141345" id="Fill-205" sketch:type="MSShapeGroup" mask="url(#mask-104)"></path>
                                </g>
                                <g id="Group-210" transform="translate(302.550291, 177.932752)">
                                    <mask id="mask-106" sketch:name="Clip 209" fill="white">
                                        <use xlink:href="#path-105"></use>
                                    </mask>
                                    <g id="Clip-209"></g>
                                    <path d="M0.0371604323,10.8740909 C0.114407315,10.9636426 2.28024605,8.63559153 4.87533167,5.67687422 C7.4715877,2.71669365 9.51394846,0.245828144 9.43640898,0.158032379 C9.36091771,0.0684806974 7.19390856,2.3962391 4.59882294,5.35641968 C2.00285952,8.31484433 -0.0392086451,10.7865878 0.0371604323,10.8740909" id="Fill-208" sketch:type="MSShapeGroup" mask="url(#mask-106)"></path>
                                </g>
                                <g id="Group-213" transform="translate(309.280133, 44.775841)">
                                    <mask id="mask-108" sketch:name="Clip 212" fill="white">
                                        <use xlink:href="#path-107"></use>
                                    </mask>
                                    <g id="Clip-212"></g>
                                    <path d="M2.33232918,0.387179328 C0.46552951,1.25547945 -0.330054863,3.99178082 0.554773067,6.49776463 C1.4401862,9.0040411 3.67068994,10.3320984 5.53778221,9.4629203 C7.40428928,8.59403487 8.19958105,5.85802615 7.31475312,3.35174969 C6.42933998,0.845765878 4.19883624,-0.481706102 2.33232918,0.387179328" id="Fill-211" sketch:type="MSShapeGroup" mask="url(#mask-108)"></path>
                                </g>
                                <g id="Group-216" transform="translate(312.791355, 47.995019)">
                                    <mask id="mask-110" sketch:name="Clip 215" fill="white">
                                        <use xlink:href="#path-109"></use>
                                    </mask>
                                    <g id="Clip-215"></g>
                                    <path d="M0.629679135,0.0354109589 C0.387697423,0.0242901619 0.161808811,0.878835616 0.125233583,1.94379826 C0.0877805486,3.00905355 0.254563591,3.88145081 0.496837905,3.89169365 C0.737941812,3.90281445 0.964415628,3.04914695 1.00040565,1.983599 C1.03727348,0.918636364 0.871368246,0.0462391034 0.629679135,0.0354109589" id="Fill-214" sketch:type="MSShapeGroup" mask="url(#mask-110)"></path>
                                </g>
                                <g id="Group-219" transform="translate(312.791355, 42.141968)">
                                    <mask id="mask-112" sketch:name="Clip 218" fill="white">
                                        <use xlink:href="#path-111"></use>
                                    </mask>
                                    <g id="Clip-218"></g>
                                    <path d="M0.851763924,0.261631382 C0.764275977,0.257534247 0.576133001,3.6508406 0.432172901,7.8407472 C0.287627598,12.0309465 0.241396509,15.4309838 0.328299252,15.4347883 C0.415494597,15.4380075 0.603052369,12.0452864 0.747305071,7.85537983 C0.892142976,3.66518057 0.938959268,0.266021171 0.851763924,0.261631382" id="Fill-217" sketch:type="MSShapeGroup" mask="url(#mask-112)"></path>
                                </g>
                                <g id="Group-222" transform="translate(311.328346, 49.165629)">
                                    <mask id="mask-114" sketch:name="Clip 221" fill="white">
                                        <use xlink:href="#path-113"></use>
                                    </mask>
                                    <g id="Clip-221"></g>
                                    <path d="M0.0593981712,0.976581569 C0.0743208645,1.40912204 1.03025104,1.71845579 2.19451372,1.66636364 C3.35819119,1.61485679 4.29012801,1.22182441 4.27637573,0.788991283 C4.26174564,0.355865504 3.30493766,0.047117061 2.14155278,0.0992092154 C0.976997506,0.151008717 0.0453532835,0.543455791 0.0593981712,0.976581569" id="Fill-220" sketch:type="MSShapeGroup" mask="url(#mask-114)"></path>
                                </g>
                                <g id="Group-225" transform="translate(305.183707, 49.458281)">
                                    <mask id="mask-116" sketch:name="Clip 224" fill="white">
                                        <use xlink:href="#path-115"></use>
                                    </mask>
                                    <g id="Clip-224"></g>
                                    <path d="M0.0506201164,0.907808219 C0.0561795511,1.06320672 3.77280798,1.02516189 8.35290441,0.820890411 C12.9338786,0.617496887 12.5353549,0.426687422 14.5873716,0.365815691 C16.8796143,0.297334994 12.9145669,0.0517995019 8.33447049,0.256070984 C3.75408146,0.460342466 0.0453532835,0.752409714 0.0506201164,0.907808219" id="Fill-223" sketch:type="MSShapeGroup" mask="url(#mask-116)"></path>
                                </g>
                                <g id="Group-228" transform="translate(311.328346, 47.995019)">
                                    <mask id="mask-118" sketch:name="Clip 227" fill="white">
                                        <use xlink:href="#path-117"></use>
                                    </mask>
                                    <g id="Clip-227"></g>
                                    <path d="M0.30079468,1.07286426 C-0.0839767249,2.0058406 0.374237739,3.18171856 1.32460848,3.69854296 C2.27614963,4.21566002 3.35819119,3.87852428 3.7438404,2.94496264 C4.1286118,2.01169365 3.66981214,0.836400996 2.71914879,0.318991283 C1.76819285,-0.197833126 0.685858687,0.139595268 0.30079468,1.07286426" id="Fill-226" sketch:type="MSShapeGroup" mask="url(#mask-118)"></path>
                                </g>
                                <g id="Group-231" transform="translate(312.791355, 49.165629)">
                                    <mask id="mask-120" sketch:name="Clip 230" fill="white">
                                        <use xlink:href="#path-119"></use>
                                    </mask>
                                    <g id="Clip-230"></g>
                                    <path d="M0.186972569,0.217733499 C0.104751455,0.297627646 0.254856193,0.657590286 0.524049875,1.01989415 C0.79207315,1.38336862 1.07589692,1.61280822 1.15782544,1.53203611 C1.24063175,1.45214197 1.09052702,1.09247198 0.821918537,0.729582814 C0.55360266,0.366693649 0.269486284,0.137839352 0.186972569,0.217733499" id="Fill-229" sketch:type="MSShapeGroup" mask="url(#mask-120)"></path>
                                </g>
                                <g id="Group-234" transform="translate(311.328346, 47.409714)">
                                    <mask id="mask-122" sketch:name="Clip 233" fill="white">
                                        <use xlink:href="#path-121"></use>
                                    </mask>
                                    <g id="Clip-233"></g>
                                    <path d="M0.242274314,0.0468244085 C0.212136326,0.0755043587 1.04371072,1.25665006 2.09912552,2.68420922 C3.15512552,4.11206102 4.03410141,5.24521171 4.0639468,5.21740971 C4.09349958,5.18843711 3.26221779,4.00729141 2.20651039,2.57973225 C1.15080299,1.1515878 0.272119701,0.0175591532 0.242274314,0.0468244085" id="Fill-232" sketch:type="MSShapeGroup" mask="url(#mask-122)"></path>
                                </g>
                                <g id="Group-237" transform="translate(312.791355, 49.165629)">
                                    <mask id="mask-124" sketch:name="Clip 236" fill="white">
                                        <use xlink:href="#path-123"></use>
                                    </mask>
                                    <g id="Clip-236"></g>
                                    <path d="M0.0746134663,1.61749066 C0.193702411,1.75445205 0.589300083,1.5247198 0.958270989,1.10359278 C1.3272419,0.682758406 1.53060017,0.230317559 1.41151122,0.0930635118 C1.29330008,-0.0441905355 0.897409809,0.185834371 0.528146301,0.606961395 C0.158882793,1.02838107 -0.044475478,1.48023661 0.0746134663,1.61749066" id="Fill-235" sketch:type="MSShapeGroup" mask="url(#mask-124)"></path>
                                </g>
                                <g id="Group-240" transform="translate(310.743142, 46.824408)">
                                    <mask id="mask-126" sketch:name="Clip 239" fill="white">
                                        <use xlink:href="#path-125"></use>
                                    </mask>
                                    <g id="Clip-239"></g>
                                    <path d="M0.158297589,6.16618929 C0.20160266,6.21623288 1.41326683,4.91392902 2.86544971,3.25839352 C4.31792519,1.60227273 5.46053533,0.219782067 5.41752286,0.170616438 C5.37509559,0.120572852 4.16284622,1.42287671 2.71066334,3.07899751 C1.25818786,4.734533 0.115577722,6.11731631 0.158297589,6.16618929" id="Fill-238" sketch:type="MSShapeGroup" mask="url(#mask-126)"></path>
                                </g>
                                <g id="Group-243" transform="translate(237.885287, 18.437111)">
                                    <mask id="mask-128" sketch:name="Clip 242" fill="white">
                                        <use xlink:href="#path-127"></use>
                                    </mask>
                                    <g id="Clip-242"></g>
                                    <path d="M3.9196941,0.632422167 C0.583448047,2.18465131 -0.838304239,7.07516812 0.742916043,11.5539228 C2.32559933,16.0338481 6.31200665,18.4072603 9.6485453,16.8538605 C12.9847914,15.3007534 14.406251,10.4108219 12.8250308,5.93148194 C11.2426401,1.45243462 7.25564755,-0.920684932 3.9196941,0.632422167" id="Fill-241" sketch:type="MSShapeGroup" mask="url(#mask-128)"></path>
                                </g>
                                <g id="Group-246" transform="translate(244.029925, 23.997509)">
                                    <mask id="mask-130" sketch:name="Clip 245" fill="white">
                                        <use xlink:href="#path-129"></use>
                                    </mask>
                                    <g id="Clip-245"></g>
                                    <path d="M1.00713549,0.197247821 C0.574962594,0.177054795 0.171464672,1.70470112 0.105921862,3.60782067 C0.0395012469,5.51211083 0.337369909,7.07107098 0.769250208,7.0900934 C1.20113051,7.10940847 1.60550623,5.58381071 1.67046384,3.6792279 C1.73629925,1.77552304 1.439601,0.216562889 1.00713549,0.197247821" id="Fill-244" sketch:type="MSShapeGroup" mask="url(#mask-130)"></path>
                                </g>
                                <g id="Group-249" transform="translate(244.322527, 14.047323)">
                                    <mask id="mask-132" sketch:name="Clip 248" fill="white">
                                        <use xlink:href="#path-131"></use>
                                    </mask>
                                    <g id="Clip-248"></g>
                                    <path d="M1.11159435,0.0907222914 C0.955637573,0.0834059776 0.619438071,6.14804483 0.36165586,13.636731 C0.103288446,21.1260025 0.0207747298,27.2029328 0.176438903,27.2096638 C0.332103076,27.2158095 0.667717373,21.1514633 0.925206983,13.6627771 C1.1841596,6.17379826 1.26784372,0.0983312578 1.11159435,0.0907222914" id="Fill-247" sketch:type="MSShapeGroup" mask="url(#mask-132)"></path>
                                </g>
                                <g id="Group-252" transform="translate(241.396509, 26.338730)">
                                    <mask id="mask-134" sketch:name="Clip 251" fill="white">
                                        <use xlink:href="#path-133"></use>
                                    </mask>
                                    <g id="Clip-251"></g>
                                    <path d="M0.00702244389,1.63036737 C0.034234414,2.40355542 1.74185869,2.95637609 3.82313549,2.86331258 C5.90294929,2.77112702 7.56902411,2.06905355 7.54356775,1.2952802 C7.51723358,0.520921544 5.8081463,-0.0307285181 3.7280399,0.0626276463 C1.64705569,0.1548132 -0.018726517,0.85630137 0.00702244389,1.63036737" id="Fill-250" sketch:type="MSShapeGroup" mask="url(#mask-134)"></path>
                                </g>
                                <g id="Group-255" transform="translate(230.277639, 26.924035)">
                                    <mask id="mask-136" sketch:name="Clip 254" fill="white">
                                        <use xlink:href="#path-135"></use>
                                    </mask>
                                    <g id="Clip-254"></g>
                                    <path d="M0.127866999,1.44541096 C0.137230258,1.72313823 6.78075478,1.65524284 14.9668761,1.29001245 C23.1532901,0.926830635 22.4422677,0.585305106 26.1088612,0.476438356 C30.205872,0.354109589 23.1193483,-0.0845765878 14.9335195,0.280068493 C6.74710557,0.645591532 0.118503741,1.16739103 0.127866999,1.44541096" id="Fill-253" sketch:type="MSShapeGroup" mask="url(#mask-136)"></path>
                                </g>
                                <g id="Group-258" transform="translate(241.396509, 23.997509)">
                                    <mask id="mask-138" sketch:name="Clip 257" fill="white">
                                        <use xlink:href="#path-137"></use>
                                    </mask>
                                    <g id="Clip-257"></g>
                                    <path d="M0.438317539,2.05120174 C-0.24958936,3.71902864 0.569403159,5.82085928 2.26824938,6.74447073 C3.9685586,7.66837484 5.90294929,7.06609589 6.5923192,5.39797634 C7.2796409,3.72956413 6.46006318,1.62919676 4.76121696,0.704122042 C3.06120033,-0.219489415 1.12680964,0.383374844 0.438317539,2.05120174" id="Fill-256" sketch:type="MSShapeGroup" mask="url(#mask-138)"></path>
                                </g>
                                <g id="Group-261" transform="translate(244.029925, 26.338730)">
                                    <mask id="mask-140" sketch:name="Clip 260" fill="white">
                                        <use xlink:href="#path-139"></use>
                                    </mask>
                                    <g id="Clip-260"></g>
                                    <path d="M0.216817955,0.27392279 C0.0690540316,0.417029888 0.338247714,1.05998755 0.818407315,1.7079203 C1.29739651,2.35731631 1.80535328,2.76732254 1.9519468,2.62304483 C2.09941812,2.48023039 1.83110224,1.83727273 1.35094264,1.18904732 C0.871660848,0.540529265 0.363704073,0.131400996 0.216817955,0.27392279" id="Fill-259" sketch:type="MSShapeGroup" mask="url(#mask-140)"></path>
                                </g>
                                <g id="Group-264" transform="translate(241.689111, 23.119552)">
                                    <mask id="mask-142" sketch:name="Clip 263" fill="white">
                                        <use xlink:href="#path-141"></use>
                                    </mask>
                                    <g id="Clip-263"></g>
                                    <path d="M0.040964256,0.049750934 C-0.0128744805,0.100672478 1.47354281,2.21157534 3.3599468,4.76321295 C5.24664339,7.31514321 6.81908562,9.34088418 6.87175395,9.2908406 C6.92412968,9.23874844 5.43859019,7.12784558 3.5518936,4.57679328 C1.66490441,2.02398506 0.0942177889,-0.00263387298 0.040964256,0.049750934" id="Fill-262" sketch:type="MSShapeGroup" mask="url(#mask-142)"></path>
                                </g>
                                <g id="Group-267" transform="translate(243.737323, 26.046077)">
                                    <mask id="mask-144" sketch:name="Clip 266" fill="white">
                                        <use xlink:href="#path-143"></use>
                                    </mask>
                                    <g id="Clip-266"></g>
                                    <path d="M0.308109726,3.06846202 C0.521123857,3.31311955 1.22804988,2.90282067 1.8872818,2.15011831 C2.54739152,1.39770859 2.91021779,0.589109589 2.69720366,0.344159402 C2.48653034,0.0986239103 1.77843392,0.509508095 1.11890939,1.26250311 C0.458799667,2.01520548 0.095680798,2.82321918 0.308109726,3.06846202" id="Fill-265" sketch:type="MSShapeGroup" mask="url(#mask-144)"></path>
                                </g>
                                <g id="Group-270" transform="translate(240.518703, 22.241594)">
                                    <mask id="mask-146" sketch:name="Clip 269" fill="white">
                                        <use xlink:href="#path-145"></use>
                                    </mask>
                                    <g id="Clip-269"></g>
                                    <path d="M0.0158004988,10.8187796 C0.0927547797,10.9080386 2.25859352,8.57998755 4.85397174,5.62127024 C7.44993516,2.66138232 9.49258853,0.190224159 9.41504904,0.102721046 C9.33926517,0.0128767123 7.17225603,2.34034247 4.57746301,5.30081569 C1.98149958,8.259533 -0.0611537822,10.7312765 0.0158004988,10.8187796" id="Fill-268" sketch:type="MSShapeGroup" mask="url(#mask-146)"></path>
                                </g>
                                <g id="Group-273" transform="translate(23.115544, 159.495641)">
                                    <mask id="mask-148" sketch:name="Clip 272" fill="white">
                                        <use xlink:href="#path-147"></use>
                                    </mask>
                                    <g id="Clip-272"></g>
                                    <path d="M3.77339318,0.540821918 C0.524635079,2.0520797 -0.859664173,6.81382939 0.68000665,11.1749377 C2.22084788,15.5375093 6.10279634,17.8480012 9.35155445,16.3358655 C12.6003126,14.8234371 13.9840266,10.0619801 12.4446484,5.70028643 C10.9038071,1.33917808 7.02156608,-0.971606476 3.77339318,0.540821918" id="Fill-271" sketch:type="MSShapeGroup" mask="url(#mask-148)"></path>
                                </g>
                                <g id="Group-276" transform="translate(28.967581, 164.763387)">
                                    <mask id="mask-150" sketch:name="Clip 275" fill="white">
                                        <use xlink:href="#path-149"></use>
                                    </mask>
                                    <g id="Clip-275"></g>
                                    <path d="M1.06858188,0.263387298 C0.647527847,0.244072229 0.254563591,1.7313325 0.191068994,3.58411582 C0.126111388,5.43865504 0.4160798,6.95664384 0.837133832,6.97508095 C1.25731006,6.99381071 1.65115212,5.50830635 1.71435411,3.65347447 C1.77843392,1.80010585 1.48963591,0.282409714 1.06858188,0.263387298" id="Fill-274" sketch:type="MSShapeGroup" mask="url(#mask-150)"></path>
                                </g>
                                <g id="Group-279" transform="translate(29.260183, 155.105853)">
                                    <mask id="mask-152" sketch:name="Clip 278" fill="white">
                                        <use xlink:href="#path-151"></use>
                                    </mask>
                                    <g id="Clip-278"></g>
                                    <path d="M1.16250707,0.128474471 C1.01035411,0.121158157 0.682932668,6.02688667 0.432172901,13.3186177 C0.18082793,20.610934 0.100069825,26.5277833 0.251930175,26.534807 C0.403497922,26.5403674 0.730041563,20.6361021 0.981093932,13.3437858 C1.23302411,6.05205479 1.31495262,0.136083437 1.16250707,0.128474471" id="Fill-277" sketch:type="MSShapeGroup" mask="url(#mask-152)"></path>
                                </g>
                                <g id="Group-282" transform="translate(26.334165, 167.104608)">
                                    <mask id="mask-154" sketch:name="Clip 281" fill="white">
                                        <use xlink:href="#path-153"></use>
                                    </mask>
                                    <g id="Clip-281"></g>
                                    <path d="M0.163857024,1.59759029 C0.190191189,2.35029265 1.85304738,2.88877335 3.87960765,2.79775841 C5.9047049,2.70791407 7.52688944,2.02457036 7.50231089,1.27128269 C7.47656193,0.517117061 5.81253533,-0.0199003736 3.78714547,0.0708219178 C1.76087781,0.160373599 0.138693267,0.84371731 0.163857024,1.59759029" id="Fill-280" sketch:type="MSShapeGroup" mask="url(#mask-154)"></path>
                                </g>
                                <g id="Group-285" transform="translate(15.507897, 167.689913)">
                                    <mask id="mask-156" sketch:name="Clip 284" fill="white">
                                        <use xlink:href="#path-155"></use>
                                    </mask>
                                    <g id="Clip-284"></g>
                                    <path d="M0.280897756,1.40180573 C0.290261014,1.67221669 6.75910224,1.60607721 14.7301613,1.25050436 C22.7015129,0.89639477 22.0089244,0.564234122 25.5792519,0.458293898 C29.5685852,0.339476961 22.6684489,-0.0880884184 14.6976825,0.266899128 C6.72662344,0.623057285 0.271827099,1.13080946 0.280897756,1.40180573" id="Fill-283" sketch:type="MSShapeGroup" mask="url(#mask-156)"></path>
                                </g>
                                <g id="Group-288" transform="translate(26.626766, 165.056040)">
                                    <mask id="mask-158" sketch:name="Clip 287" fill="white">
                                        <use xlink:href="#path-157"></use>
                                    </mask>
                                    <g id="Clip-287"></g>
                                    <path d="M0.29113882,1.77581569 C-0.378626766,3.39974471 0.418713217,5.44655666 2.07308396,6.34587796 C3.7286251,7.24549191 5.61210308,6.65901619 6.28333167,5.03450187 C6.95280466,3.40998755 6.15458687,1.36493151 4.50050873,0.464146949 C2.84526018,-0.434881694 0.961489609,0.152179328 0.29113882,1.77581569" id="Fill-286" sketch:type="MSShapeGroup" mask="url(#mask-158)"></path>
                                </g>
                                <g id="Group-291" transform="translate(28.967581, 167.104608)">
                                    <mask id="mask-160" sketch:name="Clip 290" fill="white">
                                        <use xlink:href="#path-159"></use>
                                    </mask>
                                    <g id="Clip-290"></g>
                                    <path d="M0.298746467,0.276556663 C0.155078969,0.41615193 0.416957606,1.04184309 0.88482793,1.67309465 C1.35123525,2.30522416 1.84573234,2.70440224 1.98852203,2.56392902 C2.13189692,2.4246264 1.87089609,1.79864259 1.40302577,1.16768369 C0.936618454,0.535846824 0.441828761,0.1375467 0.298746467,0.276556663" id="Fill-289" sketch:type="MSShapeGroup" mask="url(#mask-160)"></path>
                                </g>
                                <g id="Group-294" transform="translate(26.626766, 163.885430)">
                                    <mask id="mask-162" sketch:name="Clip 293" fill="white">
                                        <use xlink:href="#path-161"></use>
                                    </mask>
                                    <g id="Clip-293"></g>
                                    <path d="M0.189313383,0.142814446 C0.136645054,0.192272727 1.5838537,2.24786426 3.42110058,4.73277709 C5.25805486,7.21739726 6.78924023,9.18987547 6.84044555,9.14070984 C6.89165087,9.09066625 5.44502743,7.03507472 3.60807315,4.5507472 C1.77053367,2.06495641 0.241103907,0.0916002491 0.189313383,0.142814446" id="Fill-292" sketch:type="MSShapeGroup" mask="url(#mask-162)"></path>
                                </g>
                                <g id="Group-297" transform="translate(28.967581, 166.811955)">
                                    <mask id="mask-164" sketch:name="Clip 296" fill="white">
                                        <use xlink:href="#path-163"></use>
                                    </mask>
                                    <g id="Clip-296"></g>
                                    <path d="M0.102995844,3.00554172 C0.310157938,3.2437609 0.998650042,2.84399751 1.64061845,2.11090286 C2.28317207,1.37868618 2.63634248,0.591158157 2.42918038,0.352353674 C2.2240665,0.113549191 1.53469659,0.513897883 0.892142976,1.24669988 C0.24958936,1.97979452 -0.104166251,2.76644458 0.102995844,3.00554172" id="Fill-295" sketch:type="MSShapeGroup" mask="url(#mask-164)"></path>
                                </g>
                                <g id="Group-300" transform="translate(25.456359, 163.007472)">
                                    <mask id="mask-166" sketch:name="Clip 299" fill="white">
                                        <use xlink:href="#path-165"></use>
                                    </mask>
                                    <g id="Clip-299"></g>
                                    <path d="M0.195458022,10.6519676 C0.27036409,10.7385928 2.37943807,8.4717061 4.90664007,5.59112702 C7.43442727,2.70879203 9.42294929,0.302895392 9.34775062,0.217148194 C9.27401496,0.130230386 7.16406318,2.39653176 4.63715378,5.27886675 C2.10936658,8.16003113 0.120844555,10.5668057 0.195458022,10.6519676" id="Fill-298" sketch:type="MSShapeGroup" mask="url(#mask-166)"></path>
                                </g>
                                <g id="Group-303">
                                    <mask id="mask-168" sketch:name="Clip 302" fill="white">
                                        <use xlink:href="#path-167"></use>
                                    </mask>
                                    <g id="Clip-302"></g>
                                    <path d="M29.2105869,201.813932 L-0.243005819,216.84925 L-29.9915411,201.758913 L-29.9499917,166.51623 L-0.262317539,150.194704 L29.2164389,166.57915 L29.2105869,201.813932 L29.2105869,201.813932 Z" id="Stroke-301" stroke="#9D9D9C" sketch:type="MSShapeGroup" mask="url(#mask-168)"></path>
                                </g>
                            </g>
                        </g>
                    </g>
                </g>
            </g>
        </g>
    </g>
</svg>